<svg width="200" height="46" viewBox="0 0 200 46" fill="none" xmlns="http://www.w3.org/2000/svg">
<path d="M38.1568 23.0885C38.1568 28.7318 33.5652 33.3287 27.9167 33.3287C22.2682 33.3287 17.6765 28.737 17.6765 23.0885C17.6765 17.4401 22.2682 12.8484 27.9167 12.8484V0.166626C15.2818 0.166626 5 10.4484 5 23.0833C5 35.7182 15.2818 46 27.9167 46C40.5516 46 50.8334 35.7182 50.8334 23.0833H38.1568V23.0885Z" fill="#19BBF0"/>
<path d="M49.1306 0.00520475C36.4957 -0.229065 26.0264 9.86532 25.7974 22.5002L38.4739 22.7345C38.5781 17.1537 43.1489 12.6818 48.7089 12.6818C48.7713 12.6818 48.8338 12.6818 48.9015 12.6818C54.5448 12.7859 59.0531 17.4608 58.949 23.1041C58.8449 28.7474 54.1699 33.261 48.5267 33.1517L48.2924 45.8282C48.4329 45.8282 48.5787 45.8282 48.7192 45.8282C61.1616 45.8282 71.3965 35.8223 71.6255 23.3332C71.8598 10.6983 61.7654 0.229061 49.1305 0L49.1306 0.00520475Z" fill="#19BBF0"/>
<path d="M132.046 31.9064C132.362 31.1363 132.805 30.4716 133.375 29.9124C133.955 29.3532 134.636 28.9207 135.417 28.6147C136.208 28.3087 137.078 28.1558 138.028 28.1558C138.65 28.1558 139.299 28.2454 139.974 28.4248C140.65 28.6042 141.23 28.8468 141.715 29.1528L141.462 30.4347C140.766 30.0865 140.138 29.8386 139.579 29.6908C139.03 29.5326 138.461 29.4535 137.87 29.4535C136.931 29.4535 136.097 29.6645 135.369 30.0865C134.652 30.498 134.093 31.073 133.692 31.8115C133.291 32.5395 133.09 33.3888 133.09 34.3594C133.09 35.3511 133.291 36.211 133.692 36.939C134.093 37.667 134.652 38.2314 135.369 38.6323C136.097 39.0332 136.952 39.2337 137.933 39.2337C138.513 39.2337 139.125 39.1546 139.769 38.9963C140.412 38.8381 141.04 38.6165 141.652 38.3316L141.81 39.5977C140.565 40.2202 139.247 40.5314 137.854 40.5314C136.936 40.5314 136.092 40.3837 135.322 40.0883C134.562 39.7823 133.903 39.3603 133.344 38.8222C132.784 38.2736 132.352 37.63 132.046 36.8915C131.74 36.1424 131.587 35.3248 131.587 34.4385C131.587 33.5206 131.74 32.6766 132.046 31.9064Z" fill="#19BBF0"/>
<path d="M126.842 28.3298H128.267V40.3573H126.842V28.3298Z" fill="#19BBF0"/>
<path d="M112.699 28.3298H114.076L121.419 38.2842V28.3298H122.732V40.3573H121.355L114.012 30.403V40.3573H112.699V28.3298Z" fill="#19BBF0"/>
<path d="M107.163 28.3298H108.587V40.3573H107.163V28.3298Z" fill="#19BBF0"/>
<path d="M96.8359 28.3298H98.2602V39.1387H104.163V40.3573H96.8359V28.3298Z" fill="#19BBF0"/>
<path d="M83.5957 31.9064C83.9122 31.1363 84.3553 30.4716 84.925 29.9124C85.5053 29.3532 86.1858 28.9207 86.9665 28.6147C87.7578 28.3087 88.6282 28.1558 89.5777 28.1558C90.2002 28.1558 90.8491 28.2454 91.5243 28.4248C92.1995 28.6042 92.7798 28.8468 93.2651 29.1528L93.0119 30.4347C92.3156 30.0865 91.6878 29.8386 91.1287 29.6908C90.58 29.5326 90.0103 29.4535 89.4195 29.4535C88.4805 29.4535 87.647 29.6645 86.919 30.0865C86.2016 30.498 85.6424 31.073 85.2415 31.8115C84.8406 32.5395 84.6402 33.3888 84.6402 34.3594C84.6402 35.3511 84.8406 36.211 85.2415 36.939C85.6424 37.667 86.2016 38.2314 86.919 38.6323C87.647 39.0332 88.5016 39.2337 89.4828 39.2337C90.0631 39.2337 90.675 39.1546 91.3186 38.9963C91.9621 38.8381 92.5899 38.6165 93.2018 38.3316L93.3601 39.5977C92.1151 40.2202 90.7963 40.5314 89.4037 40.5314C88.4858 40.5314 87.6417 40.3837 86.8716 40.0883C86.1119 39.7823 85.4525 39.3603 84.8934 38.8222C84.3342 38.2736 83.9016 37.63 83.5957 36.8915C83.2897 36.1424 83.1367 35.3248 83.1367 34.4385C83.1367 33.5206 83.2897 32.6766 83.5957 31.9064Z" fill="#19BBF0"/>
<path d="M193.117 5.7218H194.683L199.574 17.7493H198.038L196.614 14.1094H191.107L189.683 17.7493H188.227L193.117 5.7218ZM196.139 12.9225L193.86 7.09863L191.582 12.9225H196.139Z" fill="#19BBF0"/>
<path d="M172.917 5.7218H174.341L178.962 14.3468L183.52 5.7218H184.944L185.53 17.7493H184.153L183.71 7.85826L179.563 15.7078H178.297L174.135 7.98487L173.708 17.7493H172.331L172.917 5.7218Z" fill="#19BBF0"/>
<path d="M163.19 5.7218H164.757L169.647 17.7493H168.112L166.688 14.1094H161.181L159.756 17.7493H158.3L163.19 5.7218ZM166.213 12.9225L163.934 7.09863L161.655 12.9225H166.213Z" fill="#19BBF0"/>
<path d="M153.997 12.5743V17.7493H152.573V12.5585L148.047 5.7218H149.645L153.333 11.4665L157.036 5.7218H158.539L153.997 12.5743Z" fill="#19BBF0"/>
<path d="M135.31 5.7218H136.734V12.6851C136.734 14.0039 137.04 15.0062 137.652 15.6919C138.274 16.3672 139.182 16.7048 140.374 16.7048C141.566 16.7048 142.468 16.3672 143.08 15.6919C143.702 15.0062 144.014 14.0039 144.014 12.6851V5.7218H145.438V12.8117C145.438 14.447 144.984 15.7236 144.077 16.6415C143.18 17.5488 141.93 18.0025 140.326 18.0025C138.744 18.0025 137.509 17.5488 136.623 16.6415C135.747 15.7236 135.31 14.447 135.31 12.8117V5.7218Z" fill="#19BBF0"/>
<path d="M131.068 16.3724C130.72 16.8894 130.229 17.2903 129.596 17.5752C128.963 17.86 128.209 18.0025 127.333 18.0025C126.88 18.0025 126.415 17.9603 125.941 17.8759C125.466 17.7915 125.012 17.6807 124.58 17.5435C124.158 17.3958 123.799 17.227 123.503 17.0371L123.677 15.7236C124.184 16.0295 124.764 16.2775 125.418 16.4674C126.072 16.6573 126.69 16.7522 127.27 16.7522C128.156 16.7522 128.858 16.5623 129.375 16.1825C129.892 15.8027 130.15 15.2857 130.15 14.6316C130.15 14.2518 130.066 13.93 129.897 13.6662C129.739 13.4025 129.454 13.1598 129.042 12.9383C128.631 12.7167 128.056 12.4846 127.317 12.2419C126.421 11.9465 125.708 11.6406 125.181 11.324C124.653 11.0075 124.279 10.6435 124.057 10.2321C123.836 9.82061 123.725 9.32474 123.725 8.74447C123.725 8.07979 123.889 7.5048 124.216 7.01948C124.553 6.52361 125.017 6.14379 125.608 5.88003C126.199 5.60572 126.89 5.46857 127.681 5.46857C128.262 5.46857 128.852 5.5477 129.454 5.70595C130.055 5.85366 130.593 6.06467 131.068 6.33898L130.831 7.5892C130.366 7.31489 129.855 7.10388 129.296 6.95618C128.736 6.79792 128.198 6.71879 127.681 6.71879C126.88 6.71879 126.252 6.89287 125.798 7.24104C125.344 7.57865 125.118 8.04814 125.118 8.64952C125.118 9.00823 125.191 9.31419 125.339 9.5674C125.487 9.81006 125.745 10.0369 126.115 10.2479C126.494 10.4484 127.017 10.6646 127.681 10.8968C128.652 11.2238 129.422 11.5562 129.992 11.8938C130.562 12.2314 130.968 12.6112 131.21 13.0332C131.464 13.4552 131.59 13.9511 131.59 14.5208C131.59 15.2277 131.416 15.8449 131.068 16.3724Z" fill="#19BBF0"/>
<path d="M115.363 6.94038H111.248V5.7218H120.902V6.94038H116.787V17.7493H115.363V6.94038Z" fill="#19BBF0"/>
<path d="M104.555 5.7218H106.122L111.012 17.7493H109.477L108.053 14.1094H102.545L101.121 17.7493H99.665L104.555 5.7218ZM107.578 12.9225L105.299 7.09863L103.02 12.9225H107.578Z" fill="#19BBF0"/>
<path d="M84.3551 5.7218H85.7794L90.4005 14.3468L94.9582 5.7218H96.3826L96.9681 17.7493H95.5913L95.1482 7.85826L91.0018 15.7078H89.7358L85.5737 7.98487L85.1464 17.7493H83.7695L84.3551 5.7218Z" fill="#19BBF0"/>
</svg>
