<svg width="300" height="46" viewBox="0 0 300 46" fill="none" xmlns="http://www.w3.org/2000/svg">
<path d="M283.11 19.712C283.49 18.7874 284.022 17.9894 284.706 17.318C285.402 16.6467 286.219 16.1274 287.157 15.76C288.107 15.3927 289.152 15.209 290.292 15.209C291.039 15.209 291.818 15.3167 292.629 15.532C293.439 15.7474 294.136 16.0387 294.719 16.406L294.415 17.945C293.579 17.527 292.825 17.2294 292.154 17.052C291.495 16.862 290.811 16.767 290.102 16.767C288.974 16.767 287.974 17.0204 287.1 17.527C286.238 18.021 285.567 18.7114 285.086 19.598C284.604 20.472 284.364 21.4917 284.364 22.657C284.364 23.8477 284.604 24.88 285.086 25.754C285.567 26.628 286.238 27.3057 287.1 27.787C287.974 28.2684 289 28.509 290.178 28.509C290.874 28.509 291.609 28.414 292.382 28.224C293.154 28.034 293.908 27.768 294.643 27.426L294.833 28.946C293.338 29.6934 291.755 30.067 290.083 30.067C288.981 30.067 287.967 29.8897 287.043 29.535C286.131 29.1677 285.339 28.661 284.668 28.015C283.996 27.3564 283.477 26.5837 283.11 25.697C282.742 24.7977 282.559 23.816 282.559 22.752C282.559 21.65 282.742 20.6367 283.11 19.712Z" fill="#19BBF0"/>
<path d="M277.337 15.4181H279.047V29.8581H277.337V15.4181Z" fill="#19BBF0"/>
<path d="M260.831 15.4181H262.484L271.3 27.3691V15.4181H272.877V29.8581H271.224L262.408 17.9071V29.8581H260.831V15.4181Z" fill="#19BBF0"/>
<path d="M254.66 15.4181H256.37V29.8581H254.66V15.4181Z" fill="#19BBF0"/>
<path d="M242.736 15.4181H244.446V28.3951H251.533V29.8581H242.736V15.4181Z" fill="#19BBF0"/>
<path d="M227.316 19.712C227.696 18.7874 228.228 17.9894 228.912 17.318C229.608 16.6467 230.425 16.1274 231.363 15.76C232.313 15.3927 233.358 15.209 234.498 15.209C235.245 15.209 236.024 15.3167 236.835 15.532C237.645 15.7474 238.342 16.0387 238.925 16.406L238.621 17.945C237.785 17.527 237.031 17.2294 236.36 17.052C235.701 16.862 235.017 16.767 234.308 16.767C233.18 16.767 232.18 17.0204 231.306 17.527C230.444 18.021 229.773 18.7114 229.292 19.598C228.81 20.472 228.57 21.4917 228.57 22.657C228.57 23.8477 228.81 24.88 229.292 25.754C229.773 26.628 230.444 27.3057 231.306 27.787C232.18 28.2684 233.206 28.509 234.384 28.509C235.08 28.509 235.815 28.414 236.588 28.224C237.36 28.034 238.114 27.768 238.849 27.426L239.039 28.946C237.544 29.6934 235.961 30.067 234.289 30.067C233.187 30.067 232.173 29.8897 231.249 29.535C230.337 29.1677 229.545 28.661 228.874 28.015C228.202 27.3564 227.683 26.5837 227.316 25.697C226.948 24.7977 226.765 23.816 226.765 22.752C226.765 21.65 226.948 20.6367 227.316 19.712Z" fill="#19BBF0"/>
<path d="M212.283 15.4181H214.164L220.035 29.8581H218.192L216.482 25.4881H209.87L208.16 29.8581H206.412L212.283 15.4181ZM215.912 24.0631L213.176 17.0711L210.44 24.0631H215.912Z" fill="#19BBF0"/>
<path d="M188.506 15.4181H190.216L195.764 25.7731L201.236 15.4181H202.946L203.649 29.8581H201.996L201.464 17.9831L196.486 27.4071H194.966L189.969 18.1351L189.456 29.8581H187.803L188.506 15.4181Z" fill="#19BBF0"/>
<path d="M177.303 15.4181H179.184L185.055 29.8581H183.212L181.502 25.4881H174.89L173.18 29.8581H171.432L177.303 15.4181ZM180.932 24.0631L178.196 17.0711L175.46 24.0631H180.932Z" fill="#19BBF0"/>
<path d="M166.741 23.6451V29.8581H165.031V23.6261L159.597 15.4181H161.516L165.943 22.3151L170.389 15.4181H172.194L166.741 23.6451Z" fill="#19BBF0"/>
<path d="M144.78 15.4181H146.49V23.7781C146.49 25.3614 146.858 26.5648 147.592 27.3881C148.34 28.1988 149.429 28.6041 150.86 28.6041C152.292 28.6041 153.375 28.1988 154.109 27.3881C154.857 26.5648 155.23 25.3614 155.23 23.7781V15.4181H156.94V23.9301C156.94 25.8934 156.396 27.4261 155.306 28.5281C154.23 29.6174 152.729 30.1621 150.803 30.1621C148.903 30.1621 147.421 29.6174 146.357 28.5281C145.306 27.4261 144.78 25.8934 144.78 23.9301V15.4181Z" fill="#19BBF0"/>
<path d="M140.163 28.2051C139.745 28.8257 139.156 29.3071 138.396 29.6491C137.636 29.9911 136.73 30.1621 135.679 30.1621C135.134 30.1621 134.577 30.1114 134.007 30.0101C133.437 29.9087 132.892 29.7757 132.373 29.6111C131.866 29.4337 131.436 29.2311 131.081 29.0031L131.29 27.4261C131.898 27.7934 132.595 28.0911 133.38 28.3191C134.165 28.5471 134.906 28.6611 135.603 28.6611C136.667 28.6611 137.509 28.4331 138.13 27.9771C138.751 27.5211 139.061 26.9004 139.061 26.1151C139.061 25.6591 138.96 25.2727 138.757 24.9561C138.567 24.6394 138.225 24.3481 137.731 24.0821C137.237 23.8161 136.547 23.5374 135.66 23.2461C134.583 22.8914 133.728 22.5241 133.095 22.1441C132.462 21.7641 132.012 21.3271 131.746 20.8331C131.48 20.3391 131.347 19.7437 131.347 19.0471C131.347 18.2491 131.543 17.5587 131.936 16.9761C132.341 16.3807 132.899 15.9247 133.608 15.6081C134.317 15.2787 135.147 15.1141 136.097 15.1141C136.794 15.1141 137.503 15.2091 138.225 15.3991C138.947 15.5764 139.593 15.8297 140.163 16.1591L139.878 17.6601C139.321 17.3307 138.706 17.0774 138.035 16.9001C137.364 16.7101 136.718 16.6151 136.097 16.6151C135.134 16.6151 134.381 16.8241 133.836 17.2421C133.291 17.6474 133.019 18.2111 133.019 18.9331C133.019 19.3637 133.108 19.7311 133.285 20.0351C133.462 20.3264 133.773 20.5987 134.216 20.8521C134.672 21.0927 135.299 21.3524 136.097 21.6311C137.262 22.0237 138.187 22.4227 138.871 22.8281C139.555 23.2334 140.043 23.6894 140.334 24.1961C140.638 24.7027 140.79 25.2981 140.79 25.9821C140.79 26.8307 140.581 27.5717 140.163 28.2051Z" fill="#19BBF0"/>
<path d="M121.781 16.8811H116.841V15.4181H128.431V16.8811H123.491V29.8581H121.781V16.8811Z" fill="#19BBF0"/>
<path d="M109.282 15.4181H111.163L117.034 29.8581H115.191L113.481 25.4881H106.869L105.159 29.8581H103.411L109.282 15.4181ZM112.911 24.0631L110.175 17.0711L107.439 24.0631H112.911Z" fill="#19BBF0"/>
<path d="M85.5048 15.4181H87.2148L92.7628 25.7731L98.2348 15.4181H99.9448L100.648 29.8581H98.9948L98.4628 17.9831L93.4848 27.4071H91.9648L86.9678 18.1351L86.4548 29.8581H84.8018L85.5048 15.4181Z" fill="#19BBF0"/>
<path d="M38.1568 23.0885C38.1568 28.7318 33.5652 33.3286 27.9167 33.3286C22.2682 33.3286 17.6765 28.737 17.6765 23.0885C17.6765 17.44 22.2682 12.8483 27.9167 12.8483V0.166565C15.2818 0.166565 5 10.4484 5 23.0833C5 35.7182 15.2818 46 27.9167 46C40.5516 46 50.8334 35.7182 50.8334 23.0833H38.1568V23.0885Z" fill="#19BBF0"/>
<path d="M49.131 0.00520475C36.4962 -0.229065 26.0269 9.86532 25.7979 22.5002L38.4744 22.7345C38.5786 17.1537 43.1494 12.6818 48.7094 12.6818C48.7718 12.6818 48.8343 12.6818 48.902 12.6818C54.5453 12.7859 59.0536 17.4608 58.9495 23.1041C58.8454 28.7474 54.1704 33.261 48.5271 33.1517L48.2929 45.8282C48.4334 45.8282 48.5792 45.8282 48.7197 45.8282C61.1621 45.8282 71.397 35.8223 71.626 23.3332C71.8603 10.6983 61.7659 0.229061 49.131 0L49.131 0.00520475Z" fill="#19BBF0"/>
</svg>
