<svg width="1669" height="516" viewBox="0 0 1669 516" fill="none" xmlns="http://www.w3.org/2000/svg">
<path opacity="0.3" d="M156.799 411.228C153.308 411.765 152.951 411.416 152.874 410.622C150.413 411.806 139.979 413.812 138.393 414.055C135.135 416.973 115.143 420.044 104.191 423.338C92.6054 426.729 49.1289 433.407 23.691 443.358C23.0173 443.058 21.67 442.459 20.9574 441.763C21.2804 438.49 20.1668 440.273 23.3793 440.182C22.4441 430.655 24.7824 431.505 25.2725 423.37C26.6254 420.745 25.5898 423.322 24.0087 420.341C25.4786 418.906 25.757 418.461 28.5741 417.625C24.6936 414.192 27.5887 414.15 24.6157 413.398C25.1335 412.109 25.1725 412.506 26.6813 411.469C24.5044 408.982 27.238 410.577 23.9087 409.477C22.8454 405.208 27.8896 400.806 30.0721 400.068C29.7214 396.495 29.3317 392.526 30.3284 389.552C31.4419 387.769 31.2025 388.612 34.3759 388.125C33.6689 384.204 32.4887 378.744 36.3025 374.934C35.5899 374.238 34.5599 373.59 33.2126 372.991C35.1223 369.474 36.5142 367.246 36.7203 362.782C39.337 363.186 38.7023 363.283 40.7233 364.182C40.0163 360.261 39.8548 361.897 37.3216 359.063C38.0009 356.138 39.2257 358.77 38.1624 354.501C43.4794 352.879 43.2789 354.118 41.542 349.55C42.2935 350.643 43.2845 350.894 44.3145 351.541C44.5985 347.871 46.0294 346.04 47.3434 343.017C47.9781 342.92 48.2954 342.871 48.5738 342.425C45.9181 341.624 47.3044 342.62 44.5262 343.853C43.9361 341.123 43.9751 341.52 43.8192 339.932C44.9327 338.149 45.367 339.291 46.5195 337.906L47.4715 337.759C46.0852 336.763 42.9118 337.251 41.6034 337.049L40.6514 337.195L44.0309 332.243L44.3483 332.195C46.3359 329.472 48.6409 326.7 50.506 326.011C48.4461 324.715 47.7334 324.019 45.1557 324.012C43.8196 316.964 50.1722 312.765 52.7499 312.772C52.5607 307.562 52.8391 307.117 53.0062 302.256L54.2756 302.061C53.2067 301.016 52.2156 300.765 51.4641 299.672C52.5776 297.889 53.0508 299.428 53.8859 298.091C55.5173 295.02 54.9215 295.514 53.6967 292.882C53.6634 289.26 55.5285 288.571 59.693 288.334C57.8725 286.196 57.9504 286.99 56.2078 285.646C58.1954 282.923 58.9583 277.567 58.2513 273.647C60.4337 272.908 61.6642 272.316 63.0504 273.312C63.6851 273.215 64.0025 273.166 64.2809 272.72C61.7477 269.886 63.4513 270.833 60.161 270.13C59.7657 269.384 59.3315 268.242 58.9751 267.894C61.9092 268.249 61.6308 268.695 64.3254 269.893L63.1786 268.054C62.427 266.961 63.418 267.212 61.7923 267.058L60.8849 264.377C63.5016 264.781 62.9058 265.276 64.6095 266.223C64.8155 261.759 65.4559 258.437 65.3835 254.418L64.4315 254.565C63.4795 254.711 64.0362 253.819 62.9617 255.999C62.0486 256.542 61.7312 256.591 60.7792 256.737C61.9373 252.127 62.1767 251.284 66.6975 251.396C66.9369 250.553 66.898 250.156 66.859 249.759C66.859 249.759 65.4394 245.142 65.3558 247.572L64.7991 248.464C65.161 245.588 66.2801 240.58 69.3813 236.075C66.8871 233.637 67.3214 234.779 65.5788 233.435C68.318 231.805 66.1745 232.941 68.3959 232.599C68.9696 222.035 72.1989 212.271 71.7815 201.455C65.4402 199.206 56.8385 196.9 51.015 193.362C39.3844 199.581 47.6463 214.833 45.8812 226.387C43.7598 237.592 41.738 282.63 35.4188 290.451C36.922 292.637 36.4877 291.495 38.6256 293.585C35.4855 297.693 35.9864 306.079 31.8163 309.54C32.8463 310.187 34.1546 310.389 34.8672 311.086C31.4154 312.019 32.2895 311.079 31.0534 314.895C30.5357 316.184 30.7751 315.341 31.5267 316.434C31.883 316.782 31.9609 317.576 32.3951 318.719C31.1647 319.31 30.53 319.408 29.578 319.554C30.6023 323.426 30.9141 326.602 31.0699 328.19C30.5911 329.875 29.1269 328.085 28.8039 331.359C27.5345 331.554 26.3041 332.145 24.7174 332.389C25.4689 333.483 26.5768 334.924 27.2895 335.621L24.5723 347.321L20.5637 349.145C21.7496 351.381 22.2617 353.317 23.0523 354.807C21.6214 356.639 19.8342 358.122 18.3254 359.16C18.3254 359.16 20.8975 362.391 20.1014 364.125C19.5836 365.414 17.3232 365.358 16.7664 366.249C16.6439 368.283 16.8054 366.646 18.0691 369.676C15.7642 372.447 15.959 374.432 12.3457 377.002C13.654 377.204 12.663 376.953 14.606 377.058C14.6394 380.679 15.7529 378.896 12.379 380.623C15.53 393.034 7.00057 394.747 9.0826 406.113C7.53483 406.753 6.26545 406.948 5.03503 407.54C7.3621 414.839 5.84205 422.325 1.35461 425.835C2.9803 425.988 1.63299 425.389 3.65396 426.288C3.84879 428.273 3.77086 427.479 3.57041 428.718C3.92672 429.067 4.00465 429.861 4.00465 429.861C3.36996 429.958 2.33999 429.31 1.70529 429.408C1.53256 437.493 -0.265874 445.426 0.513431 453.365C1.17584 460.113 6.48155 464.94 4.29347 468.902C5.32344 469.55 6.74869 470.943 7.50028 472.036C19.359 471.424 30.0431 462.127 46.74 461.577C49.6351 461.535 52.7808 454.202 57.4575 455.901C57.4575 455.901 61.505 454.474 59.2057 454.021C58.8883 454.07 58.2147 453.77 57.5021 453.074C61.7055 453.234 68.0524 452.259 70.3574 449.488C73.6088 449.794 71.5099 448.102 73.13 451.48C79.9947 449.216 81.626 446.145 84.6436 444.07C87.6612 441.995 96.0625 445.54 102.098 441.389C105.75 439.216 110.243 432.482 113.533 433.186C119.168 431.514 118.177 431.264 119.518 435.087C135.954 425.31 145.201 421.069 158.057 417.482L160.601 413.868L159.655 410.79L156.799 411.228ZM61.8035 260.61C62.1988 261.355 62.2768 262.149 62.672 262.894L60.4506 263.235C60.0943 262.887 60.0164 262.093 59.6211 261.348C60.2168 260.853 60.8515 260.756 61.8035 260.61ZM57.11 268.583C57.3438 270.965 57.2269 269.774 55.2059 268.876L57.11 268.583ZM63.2842 275.694C63.2453 275.297 62.889 274.949 62.85 274.552C61.8979 274.698 61.5806 274.747 60.6675 275.29C61.9759 275.492 61.0238 275.638 63.2842 275.694ZM61.5637 284.42C61.1295 283.278 60.7342 282.533 60.6563 281.739C59.7042 281.885 59.0695 281.983 58.4738 282.477C58.5517 283.271 58.947 284.016 59.3423 284.762L61.5637 284.42ZM48.7417 291.628C49.098 291.976 49.137 292.373 49.176 292.77C48.8586 292.819 47.9066 292.965 46.9935 293.508C46.9156 292.714 46.5203 291.969 46.125 291.224C46.7597 291.127 48.3854 291.28 48.7417 291.628ZM40.3734 314.673C42.6728 315.125 41.3644 314.923 43.068 315.87C42.7507 315.919 42.4723 316.365 42.1939 316.811C41.2419 316.957 40.6072 317.054 39.3768 317.646C39.3378 317.249 38.9815 316.901 38.9815 316.901C40.134 315.515 40.2119 316.309 40.3734 314.673ZM46.9039 322.131C48.2512 322.73 47.2602 322.48 48.9249 323.03L49.4093 318.12C49.092 318.169 47.4996 321.637 46.9039 322.131ZM37.361 336.492C37.7563 337.237 38.1905 338.379 38.2295 338.776L36.3254 339.068C36.2864 338.671 35.8912 337.926 35.4959 337.181C36.1306 337.083 36.7263 336.589 37.361 336.492ZM38.3741 346.813C36.1137 346.757 37.0658 346.611 35.7574 346.409C38.0178 346.464 36.7484 346.659 38.3741 346.813ZM30.2175 362.169C31.7207 364.355 30.6907 363.708 29.8166 364.648C30.1729 364.996 30.2119 365.393 30.6071 366.138L29.9725 366.236C29.4992 364.697 29.3823 363.506 28.9871 362.76C29.5828 362.266 29.9001 362.217 30.2175 362.169ZM18.8095 377.218C17.1838 377.065 17.8574 377.364 16.7885 376.32C18.7705 376.821 17.4622 376.619 18.8095 377.218ZM21.515 394.935C21.3924 396.969 21.6319 396.126 19.9672 395.576C20.5629 395.081 20.8803 395.033 21.515 394.935ZM19.2264 411.002C17.6007 410.848 18.2744 411.148 16.9271 410.549C18.8701 410.653 18.1965 410.354 19.2264 411.002ZM15.0953 414.86C15.6521 413.968 15.9694 413.92 15.5741 413.174C17.8735 413.627 17.1998 413.328 18.2298 413.975L18.0683 415.612C18.0683 415.612 13.9428 416.246 15.0953 414.86ZM13.9818 416.643C14.0208 417.04 13.3861 417.137 13.7813 417.882L12.5955 415.647C14.5775 416.148 13.8649 415.452 14.9338 416.496L13.9818 416.643ZM24.5322 415.828C24.5322 415.828 21.1193 417.158 22.5501 415.327C22.1549 414.581 22.4722 414.533 22.7506 414.087C24.1369 415.083 23.1069 414.435 24.5322 415.828ZM27.2324 413.802C29.2924 415.097 28.6966 415.591 29.1365 413.509L27.2324 413.802ZM20.7573 420.034C21.0747 419.986 21.7483 420.285 22.1047 420.633C22.138 424.255 22.8562 421.727 19.8386 423.802L18.5749 420.773C19.488 420.229 20.1226 420.132 20.7573 420.034ZM14.7221 424.185C14.7611 424.582 14.4827 425.028 14.5217 425.425C14.4437 424.631 14.0485 423.885 13.6532 423.14C15.3179 423.691 14.2879 423.043 15.6742 424.039L14.7221 424.185ZM21.5423 424.749C23.4853 424.854 22.8117 424.554 23.8806 425.599L21.5423 424.749ZM12.5284 431.372C12.8068 430.926 12.4505 430.578 12.6899 429.735C14.0762 430.731 13.3636 430.035 14.8278 431.825C14.8278 431.825 10.7412 432.855 12.5284 431.372ZM110.633 436.452C112.654 437.35 115.788 436.466 118.884 435.184C117.497 434.189 116.506 433.938 115.237 434.133C113.689 434.773 112.18 435.811 110.633 436.452ZM75.357 447.914C77.378 448.812 76.348 448.165 77.6564 448.367C76.0696 448.61 76.7433 448.91 75.357 447.914ZM260.016 304.309C258.468 304.949 256.441 307.275 255.011 309.107C257.432 307.526 260.172 305.897 263.267 304.615C263.624 304.964 266.602 302.491 269.419 301.656L269.62 300.416C265.572 301.844 261.842 303.222 260.016 304.309ZM252.31 311.134C252.945 311.036 253.819 310.096 255.011 309.107C252.867 310.242 250.724 311.377 248.936 312.861C250.484 312.22 251.715 311.628 252.31 311.134ZM229.962 323.028C228.654 322.826 226.193 324.01 224.489 323.063C216.233 327.554 204.368 331.391 194.046 337.812C191.229 338.648 188.852 337.401 186.118 335.806C181.007 332.965 178.396 329.336 170.424 330.158C170.969 335.715 171.949 342.415 170.396 346.28L164.861 358.816C161.632 368.579 160.118 372.841 159.583 383.803C161.436 412.531 168.134 415.129 177.988 426.913C180.527 426.523 183.066 426.133 185.565 425.346L187.431 424.656L186.957 423.117C187.002 420.29 191.801 419.956 194.858 418.277L195.771 417.734C197.124 415.109 200.297 414.621 200.024 411.842L199.947 411.049L200.86 410.505C203.003 409.37 201.817 407.135 203.287 405.7L204.2 405.157C205.03 407.044 205.943 406.501 206.416 408.04C207.891 403.381 208.059 398.52 211.711 396.347C212.624 395.804 213.303 392.879 214.333 393.527C214.89 392.635 214.573 392.684 214.495 391.89C214.417 391.096 211.204 391.187 211.087 389.996C210.971 388.805 211.21 387.962 212.323 386.179C214.228 385.887 213.12 384.445 214.946 383.359C216.772 382.273 216.939 377.412 216.939 377.412C217.262 374.138 217.546 370.468 217.513 366.847L221.956 366.164C222.195 365.322 222.752 364.43 223.347 363.936C223.197 359.124 220.185 357.974 215.87 353.399C215.158 352.702 214.523 352.8 214.128 352.055C214.445 352.006 208.822 347.228 205.738 342.061C211.222 335.577 215.982 334.846 223.287 330.5C223.448 328.864 229.4 327.144 229.244 325.556C236.309 322.053 242.267 317.109 248.936 312.861C245.802 313.745 242.033 314.727 239.611 316.308C236.593 318.383 232.702 321.398 229.962 323.028ZM183.284 346.315C182.527 348.446 181.413 350.229 181.53 351.42C181.608 352.214 182.878 352.019 184.503 352.172L184.977 353.711C184.459 355 184.576 356.191 182.711 356.88L182.633 356.086C182.399 353.704 180.177 354.045 179.109 353.001C179.509 350.521 179.871 347.645 183.284 346.315ZM207.809 359.875C207.402 365.579 205.765 371.875 203.416 377.474C202.859 378.365 202.497 381.242 201.979 382.53C200.905 384.71 199.674 385.302 198.561 387.084C197.764 388.819 196.846 392.586 195.693 393.972C190.643 401.598 184.569 405.351 179.648 407.719C177.899 409.599 173.774 410.233 169.609 410.47C169.821 402.781 170.706 395.392 172.583 388.254C170.562 387.355 172.984 385.774 173.501 384.486C173.741 383.643 172.394 383.044 172.633 382.202C172.872 381.359 174.025 379.973 174.264 379.131C171.252 377.981 169.588 377.431 169.231 377.083C168.123 375.641 176.213 376.011 176.452 375.168C176.97 373.88 175.862 372.438 177.727 371.749L178.524 370.014L177.421 365.348C177.7 364.903 180.712 366.052 180.951 365.209C182.265 362.187 183.657 359.958 185.049 357.73C187.827 356.497 186.318 357.535 187.749 355.703C199.257 351.518 199.925 355.042 207.809 359.875ZM264.801 448.233C264.684 447.042 264.885 445.802 264.768 444.611C264.729 444.214 263.699 443.566 263.265 442.424L263.582 442.376C265.169 442.132 265.926 440.001 265.492 438.859C265.492 438.859 265.414 438.065 264.501 438.608L264.384 437.417C264.384 437.417 263.126 431.163 263.209 428.733L263.622 419.804C264.256 419.707 264.574 419.658 264.496 418.864L264.457 418.467C265.409 418.321 265.926 417.033 265.81 415.842C265.693 414.651 265.297 413.906 265.181 412.715C265.142 412.318 265.064 411.524 265.659 411.029L265.465 409.045C270.72 396.955 271.149 378.353 274.468 362.934L274.195 360.156C272.731 358.366 271.74 358.115 271.423 358.164C270.471 358.31 269.674 360.044 268.405 360.239C267.453 360.385 266.779 360.086 264.68 358.393C264.875 360.378 264.675 361.618 263.088 361.862L262.771 361.91C264.163 359.682 262.704 354.668 265.56 354.229C266.551 354.48 267.264 355.176 268.216 355.03C268.216 355.03 268.533 354.981 269.051 353.693L270.003 353.546C270.12 354.737 270.476 355.086 271.111 354.988C272.38 354.793 273.811 352.962 273.616 350.977L273.383 348.595C275.804 347.014 277.035 346.422 276.64 345.677C276.205 344.535 275.214 344.284 273.75 342.494C275.019 342.299 275.22 341.06 275.42 339.82L275.265 338.232L280.977 337.355C280.782 335.37 280.665 334.179 279.596 333.134L279.479 331.944C280.476 328.97 282.82 326.595 282.43 322.625L282.118 319.45C284.858 317.82 285.287 299.219 288.549 293.076C295.848 291.955 291.6 294.622 303.387 289.991L305.291 289.699C305.369 290.493 306.042 290.792 306.677 290.695C315.563 289.33 322.672 283 328.953 274.782C329.782 276.67 331.803 277.568 333.073 277.373C334.977 277.081 337.081 275.549 337.838 273.417L338.79 273.271C338.79 273.271 345.305 267.435 346.373 268.48C345.505 266.196 341.341 266.432 337.85 266.969C334.994 267.407 331.542 268.34 330.35 269.329L328.764 269.573C326.542 269.914 326.575 273.536 324.71 274.225C324.755 271.397 323.051 270.45 321.782 270.645C320.513 270.84 318.965 271.481 317.773 272.47L317.695 271.676C317.695 271.676 317.656 271.279 317.339 271.328C316.704 271.425 309.684 272.1 309.043 275.422C307.579 273.633 304.361 276.947 304.011 273.375C302.819 274.364 302.184 274.461 301.232 274.607L295.837 275.436C294.885 275.582 293.616 275.777 292.068 276.418L293.07 270.22L294.067 267.246L293.95 266.055C293.327 259.704 295.225 262.636 295.676 254.104L295.248 249.738L295.565 249.689C296.517 249.543 296.478 249.146 296.4 248.352C296.283 247.161 295.849 246.019 295.81 245.622C295.576 243.24 299.54 244.243 298.923 234.667C299.641 232.139 300.476 230.802 300.676 229.562C300.877 228.323 300.125 227.229 300.008 226.038C299.969 225.642 299.891 224.848 300.17 224.402C298.968 208.872 290.327 206.169 288.662 205.619C285.522 209.728 282.098 240.475 281.936 242.112C281.418 243.4 279.23 247.363 279.464 249.744C279.581 250.935 280.293 251.632 281.284 251.882L281.279 255.107C278.462 255.942 281.028 262.398 278.489 262.788L278.172 262.837C278.122 268.889 277.921 270.129 275.126 281.035C262.984 285.317 245.613 285.568 245.613 285.568C245.296 285.616 244.583 284.92 244.227 284.572C244.383 286.16 242.434 289.279 242.946 291.216C244.956 298.563 255.824 297.7 264.114 296.829L264.748 296.732C266.652 296.439 266.769 297.63 268.356 297.387C268.673 297.338 269.508 296.001 269.508 296.001L269.703 297.986L271.568 297.296C272.52 297.15 273.155 297.052 273.55 297.798C273.667 298.988 272.871 300.723 272.91 301.12C272.988 301.913 273.623 301.816 274.575 301.67L270.483 305.925C265.845 327.591 263.478 342.863 262.526 343.009C262.209 343.058 261.691 344.346 261.769 345.14C261.925 346.728 262.994 347.773 263.946 347.627C263.946 347.627 264.58 347.529 264.859 347.083L265.811 346.937C266.763 346.791 267.437 347.091 267.553 348.281L267.67 349.472C265.015 348.671 264.063 348.818 264.063 348.818C261.841 349.159 261.44 351.638 260.683 353.769L260.8 354.96C259.887 355.503 259.965 356.297 259.686 356.743C259.13 357.634 260.082 357.488 260.121 357.885C258.55 371.423 252.933 386.39 253.356 393.981C253.55 395.965 253.985 397.108 254.736 398.201C253.94 399.935 255.482 402.519 252.943 402.909L252.153 401.418C251.719 400.276 251.401 400.325 250.41 400.074L250.644 402.456C250.878 404.838 250.911 408.459 251.067 410.047C251.301 412.429 252.648 413.028 252.687 413.425C252.681 416.649 248.957 414.804 248.912 417.631C250.299 418.627 251.05 419.72 251.167 420.911C251.401 423.293 250.048 425.919 250.282 428.3C250.399 429.491 250.477 430.285 251.15 430.585C251.857 434.506 251.857 434.506 253.16 437.932C256.205 442.703 258.66 444.743 264.801 448.233ZM280.61 274.551C279.658 274.697 278.155 272.51 277.999 270.923C277.882 269.732 280.778 269.69 280.505 266.911L280.388 265.72C279.803 259.766 283.879 242.216 284.364 237.306C286.902 236.916 285.538 245.991 284.096 254.271L283.144 254.417C282.698 259.724 284.435 264.293 282.292 265.428C280.822 266.863 281.562 274.405 280.61 274.551ZM329.724 423.755C331.667 423.859 333.532 423.17 335.436 422.878C336.984 422.237 338.888 421.944 340.436 421.304C342.936 420.517 345.124 416.554 347.896 418.546C348.537 415.224 349.722 417.46 350.636 416.917C352.183 416.276 353.375 415.287 354.884 414.249C356.392 413.212 357.901 412.174 359.371 410.74C362.35 408.267 364.933 405.05 366.843 401.533C363.43 379.895 341.639 367.93 327.253 362.483C326.385 360.199 327.097 360.895 326.028 359.851C325.639 355.881 326.201 351.765 327.12 347.998C327.838 345.47 328.874 342.893 329.909 340.316C330.427 339.028 332.693 335.859 334.92 332.293L336.162 325.252L338.856 326.45C340.209 323.825 341.64 321.993 342.197 321.102C343.589 318.873 340.655 318.518 342.047 316.29C343.99 316.394 345.771 318.135 347.481 315.858C349.268 314.375 350.465 310.161 351.935 308.727C354.039 307.195 354.112 311.213 355.62 310.175C363.599 306.129 369.706 305.997 376.482 309.389C376.844 306.513 376.565 306.958 377.361 305.224C376.103 298.97 358.677 285.529 353.166 285.167C351.462 284.219 349.279 284.958 346.858 286.538C345.349 287.576 343.283 289.505 341.574 291.782C334.303 299.749 327.143 312.132 322.616 315.244L323.084 320.008L318.641 320.69C319.393 321.784 320.105 322.48 321.174 323.525C316.559 332.293 306.542 345.114 315.049 356.299C315.795 360.616 317.811 364.739 321.056 368.27C322.164 369.712 323.907 371.056 325.332 372.449L329.135 375.089C335.008 372.575 336.623 379.177 339.356 380.772C342.051 381.97 338.694 374.023 344.746 383.168C347.44 384.366 350.452 385.515 352.791 386.364C353.141 389.937 353.375 392.319 352.301 394.499C348.637 403.12 338.165 404.729 331.383 404.561C326.941 405.244 320.354 407.061 317.582 405.069C308.145 404.101 314.664 395.041 315.895 394.449C317.443 393.808 316.29 395.194 315.862 390.827C313.757 392.36 313.122 392.457 311.691 394.289C308.641 392.742 310.65 400.09 309.27 395.869C306.53 397.499 309.108 397.506 306.33 398.739C301.753 407.903 302.054 417.528 304.704 421.554C308.351 422.605 311.997 423.657 315.566 423.915C317.865 424.367 319.808 424.472 322.069 424.528C320.844 421.895 323.383 421.505 329.724 423.755ZM404.491 325.637C405.048 324.746 405.605 323.855 405.844 323.012C405.805 322.615 405.287 323.903 404.491 325.637ZM353.749 360.026C367.406 351.481 387.61 340.722 398.612 331.376C391.43 333.688 389.403 336.014 384.559 339.175C380 338.667 360.825 350.074 353.749 360.026ZM352.724 356.153C353.003 355.708 351.533 357.142 350.581 357.289C350.264 357.337 351.333 358.382 351.611 357.936L352.724 356.153ZM342.87 367.338C344.935 365.409 347.953 363.333 351.605 361.161C349.189 359.517 345.737 360.45 343.432 363.222C343.349 365.652 343.271 364.858 342.753 366.147L342.87 367.338ZM345.882 368.487C346.155 371.266 349.178 365.966 351.126 362.846C349.696 364.678 347.63 366.607 345.247 368.584L345.882 368.487ZM316.853 391.078C318.356 393.265 321.891 389.901 323.244 387.276C322.57 386.976 321.657 387.52 320.11 388.16C319.236 389.1 318.044 390.089 316.853 391.078ZM328.054 403.461C327.225 401.574 323.416 402.159 322.665 401.065C322.743 401.859 325.12 403.106 325.198 403.9L328.054 403.461ZM536.285 319.499C535.7 313.544 537.654 307.2 536.992 300.451C536.797 298.466 536.641 296.879 536.168 295.34C535.65 296.628 535.689 297.025 535.055 297.122C533.785 297.317 530.935 294.532 529.983 294.678L529.788 292.693C530.267 291.008 531.141 290.067 533.045 289.775L532.46 283.821C532.382 283.027 519.399 268.903 519.399 268.903C517.067 264.829 506.527 259.194 505.575 259.34C504.306 259.535 502.157 263.895 501.918 264.738L502.112 266.722L494.179 267.941C493.344 269.278 493.46 270.469 493.577 271.66C493.616 272.057 493.694 272.851 494.763 273.895C488.249 279.731 480.85 292.956 477.676 293.444C475.054 296.264 469.525 305.575 469.681 307.163C469.798 308.354 470.472 308.653 470.55 309.447C470.589 309.844 470.032 310.736 469.119 311.279L469.314 313.264C466.814 314.051 467.125 317.226 464.347 318.459L464.503 320.047C463.145 325.897 460.834 331.893 460.979 339.93L461.212 342.311C461.68 347.075 460.923 349.206 461.39 353.97L461.663 356.748C460.828 358.086 460.945 359.276 460.984 359.673C461.49 364.834 469.134 370.51 469.602 375.274C469.641 375.671 469.719 376.464 469.479 377.307C469.518 377.704 469.914 378.449 469.914 378.449L472.814 375.183L473.009 377.168C473.243 379.55 473.995 380.643 475.977 381.145L476.929 380.998C478.515 380.755 478.95 381.897 480.854 381.604L484.979 380.971C484.422 381.862 484.578 383.45 484.656 384.244C484.773 385.435 484.812 385.832 485.447 385.734L486.56 383.952L490.051 383.415C489.934 382.224 490.491 381.333 490.808 381.284C492.395 381.041 493.898 383.227 495.485 382.984C498.341 382.545 505.601 381.027 506.759 376.417L508.346 376.173C508.702 376.521 509.732 377.169 510.367 377.071C512.271 376.779 512.594 373.506 514.498 373.213L515.45 373.067L515.294 371.479C514.905 367.51 517.009 365.978 518.997 363.255L519.949 363.108C520.027 363.902 520.344 363.854 520.344 363.854C522.248 363.561 525.867 357.767 525.633 355.385C525.633 355.385 525.594 354.988 524.96 355.086L524.765 353.101C528.851 352.07 529.731 347.906 531.362 344.834L530.622 337.292L534.113 336.756C534.191 337.55 534.23 337.947 534.865 337.849C534.865 337.849 535.143 337.404 535.065 336.61L534.948 335.419C536.657 333.142 539.948 333.845 539.363 327.891L538.935 323.524L537.665 323.719C537.231 322.577 536.44 321.086 536.285 319.499ZM515.535 278.764L515.847 281.94L513.943 282.232L513.631 279.056L515.535 278.764ZM530.561 303.857C529.292 304.052 531.14 313.036 528.284 313.474L527.332 313.62L527.8 318.384C527.165 318.482 518.056 333.984 518.218 332.347C516.258 341.916 507.634 352.508 505.73 352.801C505.412 352.85 505.373 352.453 504.739 352.55C505.011 355.329 495.168 360.064 496.437 359.869L496.12 359.918C495.68 362 489.445 367.391 487.54 367.683C485.319 368.024 483.304 363.901 482.352 364.048C480.765 364.291 480.364 366.77 479.412 366.917C479.095 366.965 479.217 364.932 476.996 365.273C475.409 365.517 474.774 365.614 474.301 364.075L472.781 348.594C472.548 346.212 472.748 344.972 474.335 344.728L474.14 342.744C473.305 344.081 472.67 344.178 471.718 344.324C470.766 344.471 469.775 344.22 469.697 343.426C469.58 342.235 470.176 341.741 471.963 340.257L472.119 341.845L474.023 341.553L473.672 337.98C479.669 333.433 477.637 316.015 485.342 309.19C485.459 310.381 485.498 310.778 486.45 310.632C486.734 306.962 489.273 306.572 489.357 304.141L490.476 299.134C492.385 295.617 505.525 288.36 509.617 284.105L516.437 284.67L516.593 286.258C517.105 288.194 522.339 289.002 523.925 288.758L526.063 290.847C527.015 290.701 527.65 290.604 527.845 292.588C527.962 293.779 527.444 295.068 527.6 296.656L527.717 297.846C529.977 297.902 529.175 302.861 530.879 303.808L530.561 303.857ZM502.211 369.459C501.576 369.557 501.376 370.796 500.897 372.482L499.945 372.628C498.915 371.98 498.28 372.078 498.046 369.696L498.681 369.598C500.268 369.355 500.39 367.321 501.225 365.984C503.246 366.883 505.267 367.781 505.657 371.751C504.31 371.152 503.163 369.313 502.211 369.459ZM635.459 279.687C635.659 278.447 634.746 278.99 632.408 278.14C626.022 278.718 622.648 280.445 620.343 283.217L620.777 284.359L612.209 285.675C611.257 285.821 610.305 285.968 610.422 287.159C610.099 290.432 603.718 287.785 603.078 291.107C600.857 291.448 599.905 291.595 599.47 290.452C599.47 290.452 599.353 289.261 599.91 288.37C599.871 287.973 598.841 287.325 598.841 287.325C597.7 282.262 608.033 269.393 604.086 258.716L603.652 257.574C606.391 255.945 604.933 250.93 608.741 250.345C607.872 248.061 607.16 247.365 606.408 246.271C607.561 244.885 608.991 243.054 609.392 240.575C608.045 239.976 607.689 239.627 607.611 238.833C607.455 237.246 612.137 235.721 611.703 234.578C611.269 233.436 609.365 233.729 609.209 232.141C608.741 227.377 616.719 223.331 614.153 216.875L613.719 215.733C612.455 212.704 616.024 212.961 615.194 211.074C614.76 209.932 612.739 209.033 612.583 207.446C612.505 206.652 621.057 192.041 621.057 192.041C620.105 192.187 620.066 191.79 619.988 190.996L619.871 189.805C619.832 189.408 619.515 189.457 619.437 188.663C619.281 187.075 621.742 185.891 621.308 184.749C621.308 184.749 620.673 184.847 619.682 184.596L618.736 181.518C618.736 181.518 625.5 168.39 625.027 166.851C624.075 166.997 622.806 167.192 622.371 166.05C623.563 165.061 623.724 163.425 624.994 163.23L625.946 163.084C627.7 157.979 629.977 148.361 631.809 144.05L631.258 141.717L633.162 141.425L633.045 140.234C632.811 137.852 635.071 137.908 635.589 136.62L634.448 131.557C638.028 125.365 639.865 117.83 643.406 111.242C642.933 109.703 635.885 103.532 633.981 103.825L631.442 104.215C629.104 103.365 628.118 99.8898 626.532 100.134C625.579 100.28 625.379 101.519 625.613 103.901L625.73 105.092C625.886 106.68 625.568 106.729 625.685 107.92L625.763 108.714C624.332 110.545 620.318 115.594 619.204 117.377L616.983 117.718C616.426 118.609 616.543 119.8 616.582 120.197C616.777 122.182 618.481 123.129 619.466 126.605C619.538 130.623 616.359 134.335 614.488 138.249L615.513 142.121C616.064 144.454 611.031 142.406 612.807 147.372C614.188 151.592 609.026 154.803 610.129 159.469C610.129 159.469 610.802 159.768 611.198 160.513C610.719 162.199 607.339 167.15 607.339 167.15C609.583 176.879 602.779 189.61 603.13 193.183L603.247 194.373C603.364 195.564 602.528 196.901 603.319 198.392C603.714 199.137 603.831 200.328 604.505 200.627L602.918 200.871C599.745 201.358 600.028 220.656 599.555 219.117C599.037 220.406 598.441 220.9 597.567 221.84L596.615 221.987C597.089 223.526 597.84 224.619 598.592 225.712C597.239 228.338 597.35 232.753 597.422 236.772C598.959 242.58 593.247 243.457 593.792 249.015L591.888 249.307C591.927 249.704 592.679 250.798 593.074 251.543C594.655 254.524 591.042 257.093 591.237 259.078C591.275 259.475 591.91 259.378 592.623 260.074L593.575 259.928C593.513 272.429 587.768 269.685 588.87 274.351L589.972 279.017C590.407 280.159 584.004 290.41 582.256 292.29L581.621 292.388C580.786 293.725 580.669 292.534 580.78 296.95C582.406 297.103 584.109 298.05 584.343 300.432L584.46 301.623C583.903 302.514 582.951 302.66 582.317 302.758C578.508 303.343 574.784 301.497 573.515 301.692C572.88 301.789 572.919 302.186 572.919 302.186C573.236 302.138 573.949 302.834 573.988 303.231C574.066 304.025 573.787 304.471 573.47 304.519C573.431 304.122 572.401 303.475 571.449 303.621C571.132 303.67 570.892 304.512 570.931 304.909L569.027 305.202C565.336 306.978 558.154 309.29 556.044 314.046L556.478 315.188C549.179 316.309 550.521 320.133 547.03 320.669C546.078 320.815 545.716 323.691 545.872 325.279C546.105 327.661 549.758 325.488 551.344 325.245C553.521 327.731 555.147 327.884 557.207 329.179C557.641 330.322 557.958 330.273 558.593 330.175C559.545 330.029 560.458 329.486 560.38 328.692C560.497 329.883 560.575 330.677 560.932 331.025L562.201 330.83C561.961 331.673 562 332.07 562 332.07C562.947 335.148 570.669 341.618 575.624 342.872L576.576 342.726C578.797 342.384 580.3 344.571 580.891 347.301C580.256 347.399 578.129 361.829 578.168 362.226L578.285 363.416C578.402 364.607 578.162 365.45 578.279 366.641L578.396 367.832C577.127 368.027 576.848 368.472 576.926 369.266C577.043 370.457 578.429 371.453 578.546 372.644C578.585 373.041 578.663 373.835 578.385 374.281L577.115 374.476C575.328 375.959 575.206 377.993 575.478 380.771C575.556 381.565 576.425 383.85 576.742 383.801L577.377 383.703L577.967 386.433C574.471 390.194 570.645 400.452 572.421 405.418C572.856 406.56 573.485 409.687 574.437 409.541C574.988 411.874 575.144 413.462 573.674 414.896C572.683 414.645 571.653 413.998 571.336 414.046C570.701 414.144 570.779 414.938 570.896 416.129C570.935 416.526 571.33 417.271 572.321 417.522C572.199 419.555 570.84 425.405 570.038 430.364L569.721 430.412C567.249 438.045 566.285 444.64 568.457 450.351C568.891 451.493 569.086 453.478 570.155 454.523C570.272 455.714 566.413 462.351 567.432 469.447C568.384 469.301 569.135 470.394 570.127 470.645C570.522 471.39 566.68 491.322 567.231 493.655C568.768 499.463 571.546 498.231 571.663 499.421C571.857 501.406 569.241 501.002 570.109 503.287C570.543 504.429 579.295 511.546 581.834 511.157L582.786 511.01C586.544 516.477 593.253 512.626 595.825 515.858C598.247 514.277 606.03 508.246 603.943 500.105L605.529 499.861C604.9 496.734 606.253 494.109 608.157 493.816L609.11 493.67C608.007 489.004 609.121 487.221 608.926 485.236L608.887 484.839C615.885 474.094 619.115 464.33 619.076 463.933C618.959 462.742 616.776 463.48 616.621 461.892C617.022 459.413 618.263 452.372 619.85 452.128L620.802 451.982L620.212 449.252C621.053 444.691 624.276 438.151 622.105 432.441C621.671 431.298 621.554 430.107 620.802 429.014C620.685 427.823 620.964 427.377 621.56 426.883C622.628 427.928 624.494 427.238 623.547 424.16C623.074 422.621 620.14 422.266 620.101 421.869C620.023 421.075 625.178 421.089 623.442 416.52L623.007 415.378C622.295 414.682 622.256 414.285 621.86 413.539C620.714 411.701 623.174 410.517 623.297 408.483L623.18 407.293C623.141 406.896 622.111 406.248 622.072 405.851C621.955 404.66 622.156 403.42 622.673 402.132L620.424 395.627C619.951 394.088 620.708 391.957 620.475 389.575C620.436 389.178 619.25 386.943 618.298 387.089L617.98 387.138C618.816 385.801 618.704 381.385 617.68 377.513C616.578 372.847 614.206 368.376 612.703 366.189L611.433 366.384L610.921 364.448C610.37 362.115 609.301 361.07 607.798 358.883L606.222 352.678C605.593 349.551 597.393 344.767 596.441 344.913L595.489 345.059C594.898 342.329 592.449 337.064 588.607 334.027C591.107 333.241 592.661 329.375 592.349 326.2C592.31 325.803 591.241 324.758 590.528 324.062L590.372 322.474C590.178 320.489 590.139 320.092 589.704 318.95L589.27 317.808L590.222 317.661C592.761 317.272 595.834 305.92 596.825 306.171C596.67 304.583 597.622 304.437 597.187 303.294C598.457 303.099 598.891 304.242 599.843 304.095C598.78 299.826 603.339 300.335 605.088 298.454C606.396 298.656 608.578 297.918 610.165 297.675C612.069 297.382 614.497 292.577 616.401 292.284C621.044 290.362 628.154 284.032 628.154 284.032C629.741 283.788 630.175 284.931 631.127 284.784C633.983 284.346 634.98 281.372 635.459 279.687ZM638.443 273.99C637.29 275.376 637.446 276.964 638.198 278.057C638.832 277.96 639.15 277.911 639.901 279.004C644.033 275.146 647.562 275.007 651.298 270.404L649.912 269.408C645.152 270.139 641.182 272.36 638.443 273.99ZM585.768 324.793C584.181 325.036 582.789 327.265 583.146 327.613C583.858 328.31 584.61 329.403 585.362 330.497C585.796 331.639 585.2 332.133 584.883 332.182L584.209 331.882C583.931 332.328 583.057 333.268 582.105 333.414C580.2 333.707 579.889 330.531 576.081 331.116C573.859 331.457 570.485 333.184 568.264 333.525C566.36 333.818 564.656 332.871 564.105 330.538C563.515 327.808 563.676 326.171 566.176 325.384L571.137 323.413C574.789 321.241 577.295 317.229 582.689 316.401C583.959 316.206 586.464 312.194 588.129 312.745C588.602 314.284 587.088 318.546 587.283 320.531L587.322 320.928C587.516 322.912 587.99 324.452 586.085 324.744L585.768 324.793ZM593.963 355.77C596.218 359.05 598.712 361.488 602.08 362.985C601.88 364.225 602.314 365.367 602.748 366.509C604.485 371.078 607.731 374.609 608.677 377.687C609.151 379.226 609.267 380.417 608.75 381.705C610.136 382.701 610.214 383.495 610.648 384.637C610.253 383.892 610.915 390.641 609.88 393.217C611.466 392.974 611.583 394.165 612.892 394.367L613.844 394.22C614.161 394.172 614.874 394.868 614.913 395.265C615.107 397.25 614.912 418.233 612.49 419.814C614.712 419.473 615.341 422.6 616.326 426.075C609.345 427.147 616.042 429.745 613.097 435.839L613.136 436.236C613.214 437.03 613.331 438.221 612.735 438.715L613.169 439.857C614.038 442.142 611.777 442.086 612.25 443.625L613.314 447.894L612.362 448.04L612.479 449.231C612.518 449.628 607.585 458.445 607.941 458.793C607.941 458.793 608.019 459.587 608.336 459.538C608.809 461.077 605.953 461.516 606.07 462.707C606.148 463.501 608.208 464.796 608.442 467.178L608.559 468.369L605.385 468.856C601.605 476.287 599.45 483.871 595.274 490.557L593.37 490.849C588.927 491.531 585.793 492.416 583.015 493.648L582.347 490.124C581.835 488.188 580.766 487.144 579.814 487.29L579.697 486.099C580.649 485.953 582.714 484.024 582.319 483.279L580.66 479.504C580.265 478.759 581.217 478.612 581.178 478.216L581.1 477.422C581.061 477.025 580.983 476.231 581.579 475.736C580.231 475.137 579.558 474.838 579.046 472.902C582.536 472.366 579.096 466.85 580.844 464.969L579.775 463.925C581.245 462.49 581.367 460.457 580.816 458.124L581.768 457.977C581.535 455.596 582.097 451.48 581.863 449.098C581.785 448.304 581.746 447.907 581.034 447.211L580.048 443.735C580.366 443.687 580.961 443.192 580.883 442.398L580.844 442.001C581.796 441.855 581.718 441.061 582.632 440.518C582.236 439.773 581.167 438.728 581.128 438.331C580.817 435.155 582.448 432.084 581.936 430.148C581.463 428.609 578.751 437.084 578.361 433.115C578.245 431.924 577.415 430.037 578.367 429.89L581.541 429.403C581.39 424.591 580.923 419.827 582.793 415.913L581.725 414.869C581.251 413.329 583.395 412.194 583.278 411.003C583.239 410.606 581.853 409.611 581.775 408.817C581.736 408.42 581.658 407.626 582.254 407.131L581.502 406.038C584.358 405.599 583.807 403.266 583.456 399.693C583.378 398.9 582.309 397.855 581.875 396.713C578.006 386.83 588.239 386.064 585.166 374.448L584.142 370.576L585.094 370.43C585.216 368.396 587.515 368.849 588.033 367.56L586.97 363.291C585.829 358.228 586.864 355.651 587.705 351.09C590.561 350.651 592.064 352.838 593.529 354.628L593.963 355.77ZM610.831 439.008C609.561 439.202 609.445 438.012 608.454 437.761C608.609 439.349 607.657 439.495 607.457 440.735C609.044 440.491 609.478 441.633 610.43 441.487C609.996 440.345 610.909 439.801 610.831 439.008ZM791.905 235.914C788.543 231.192 782.09 224.527 778.282 225.112L776.417 225.801C774.513 226.093 775.075 221.978 773.171 222.27L772.219 222.416L772.414 224.401L771.462 224.547C771.033 220.181 767.219 223.99 766.234 220.515C759.57 221.538 756.251 236.957 746.413 238.468L746.013 240.947C746.052 241.344 746.324 244.123 746.007 244.172L745.372 244.269C741.247 244.903 723.419 279.877 722.935 284.787L721.348 285.031C720.953 284.285 720.914 283.888 720.279 283.986C719.327 284.132 719.633 290.532 718.798 291.869L718.915 293.06C716.454 294.244 716.844 298.214 714.978 298.903C715.73 299.997 716.164 301.139 716.281 302.33C716.788 307.49 715.112 313.389 715.618 318.549C715.969 322.122 716.559 324.852 718.697 326.941L719.398 334.087C720.506 335.528 720.857 339.101 723.474 339.505L723.785 342.681C725.923 344.77 733.333 348.064 732.381 348.211C733.016 348.113 732.938 347.319 733.256 347.271C737.765 353.831 742.915 357.07 748.627 356.192C750.214 355.949 751.444 355.357 752.797 352.731L753.749 352.585C755.058 352.787 756.01 352.641 757.596 352.397C766.482 351.032 774.193 340.983 780.267 337.229L781.22 337.083C781.515 326.964 797.56 313.217 796.508 302.499L795.556 302.645C794.287 302.84 788.797 312.548 784.672 313.182C783.72 313.328 783.046 313.029 782.016 312.381C782.133 313.572 781.894 314.414 780.942 314.561L780.229 313.864C780.424 315.849 779.511 316.392 778.559 316.538C777.289 316.733 775.379 320.25 774.427 320.397L773.793 320.494L773.949 322.082C774.901 321.936 775.613 322.632 775.652 323.029C775.769 324.22 773.743 326.546 770.886 326.985C769.617 327.18 768.982 327.277 768.626 326.929C769.5 325.989 770.53 326.636 769.662 324.352L764.144 327.214C763.504 330.536 759.618 330.327 759.774 331.915C759.969 333.9 760.72 334.993 760.759 335.39C760.759 335.39 760.837 336.184 760.202 336.282C759.807 335.537 759.807 335.537 758.855 335.683L755.999 336.121C755.047 336.268 754.095 336.414 753.226 334.13C754.774 333.489 757.708 333.844 757.753 331.017L756.522 331.609C750.053 334.617 745.894 331.629 740.816 332.409C739.864 332.555 738.834 331.908 737.882 332.054C737.96 332.848 737.365 333.342 736.93 332.2C736.93 332.2 736.257 331.901 736.179 331.107C733.133 326.336 728.846 328.606 728.535 325.43C728.457 324.637 729.053 324.142 728.975 323.348C728.936 322.951 728.184 321.858 728.106 321.064C727.716 317.094 726.252 315.304 729.314 310.402L731.82 306.39C732.46 303.068 734.843 301.091 734.376 296.327L733.423 296.473L733.307 295.282C733.073 292.901 734.108 290.324 733.875 287.942C733.797 287.148 733.68 285.957 733.285 285.212C733.401 286.403 732.845 287.294 731.893 287.44C731.575 287.489 731.497 286.695 730.863 286.793L731.681 295.129C729.576 296.661 728.78 298.395 726.241 298.785L725.289 298.931L725.017 296.153C725.056 296.55 726.086 297.197 726.72 297.1C728.624 296.807 730.651 294.481 730.495 292.893C730.378 291.703 729.983 290.957 729.309 290.658C729.265 293.485 727.438 294.572 724.9 294.962C726.57 292.287 729.109 291.898 728.875 289.516C728.797 288.722 728.006 287.231 727.572 286.089C728.641 287.134 728.959 287.085 729.593 286.988C731.497 286.695 731.308 281.486 734.086 280.253L734.554 285.017C738.045 284.481 737.972 280.462 740.751 279.23C740.083 275.706 737.906 273.22 737.75 271.632C737.75 271.632 738.39 268.31 740.294 268.017C742.198 267.725 741.675 272.238 743.618 272.342C744.77 270.956 745.366 270.462 745.249 269.271C745.132 268.08 742.477 267.279 742.36 266.088C742.282 265.294 742.282 265.294 742.878 264.8C743.947 265.845 744.899 265.698 745.851 265.552C749.659 264.967 751.14 257.084 753.328 253.121C753.484 254.709 754.436 254.563 754.948 256.499L755.9 256.353C757.726 255.266 757.136 252.536 759.358 252.195L760.31 252.049L760.232 251.255C759.959 248.476 763.884 249.082 765.593 246.805L766.545 246.659C770.036 246.123 774.635 247.028 775.353 244.5L775.158 242.515L776.745 242.271C778.649 241.979 778.81 240.342 780.715 240.05L782.301 239.806L782.457 241.394C782.652 243.379 783.604 243.233 784.873 243.038L790.586 242.16C791.421 240.823 792.891 239.389 792.657 237.007C792.657 237.007 792.579 236.213 791.827 235.12L791.905 235.914ZM735.973 289.634C737.605 286.563 741.018 285.233 740.945 281.215C738.88 283.144 736.141 284.773 735.973 289.634ZM761.227 340.154C761.188 339.757 761.11 338.963 760.358 337.87C761.945 337.626 761.505 339.708 762.257 340.802C764.161 340.509 764.283 338.476 766.187 338.183C766.655 342.947 763.955 344.973 760.781 345.461C759.829 345.607 758.203 345.454 757.808 344.708C757.853 341.881 761.577 343.727 761.227 340.154ZM905.502 339.754L906.454 339.608C900.909 335.624 896.121 329.509 893.994 320.971C888.232 304.932 893.583 283.963 894.708 275.731C894.992 272.061 892.336 271.26 892.698 268.384L896.473 264.177C893.862 260.549 894.669 252.366 895.588 248.598C898.105 238.138 902.525 227.385 904.012 216.277C904.575 212.162 900.811 209.919 901.095 206.249C893.807 200.921 888.05 204.626 881.587 204.41C881.269 204.458 881.308 204.855 881.03 205.301C882.611 208.282 881.898 207.585 883.958 208.881C883.786 216.966 871.509 229.731 867.612 235.971C866.498 237.754 867.918 242.372 866.448 243.806C864.778 246.48 861.326 247.413 860.012 250.436C858.898 252.219 859.884 255.694 858.809 257.874C857.896 258.417 856.983 258.96 856.109 259.9C853.798 265.896 850.814 271.593 848.542 277.986C842.657 286.949 830.57 304.924 828.41 315.732L826.506 316.024C826.361 307.988 827.692 295.292 830.676 289.595C828.46 286.712 830.877 288.356 828.182 287.158C829.691 286.12 828.46 286.712 831.038 286.719L833.599 273.431C835.03 271.6 833.56 273.034 832.096 271.244C832.97 270.304 833.288 270.255 835.47 269.517C834.802 265.993 835.593 267.484 834.446 265.645C834.446 265.645 833.343 260.979 834.847 263.166C835.52 263.465 835.838 263.417 836.194 263.765C836.322 258.507 834.825 253.096 838.243 248.541C836.027 245.658 836.74 246.354 834.641 244.662C836.751 239.905 840.838 238.875 840.849 232.426C840.415 231.284 841.088 231.583 839.463 231.43C839.028 230.288 838.95 229.494 838.873 228.7C841.211 229.55 840.576 229.647 842.319 230.991C842.603 227.321 842.603 227.321 844.351 225.441C842.965 224.445 842.965 224.445 840.704 224.389C840.949 220.322 840.866 222.752 844.078 222.662C842.853 220.029 842.97 221.22 841.506 219.43L842.458 219.284C842.859 216.805 842.776 219.236 844.796 220.134C843.655 215.071 843.889 217.453 841.478 212.585C845.331 209.172 846.445 207.389 849.663 204.074C849.546 202.884 849.468 202.09 849.073 201.344C848.516 202.236 848.276 203.079 847.759 204.367L845.855 204.659C845.871 194.986 850.643 187.806 851.094 179.275C853.711 179.679 852.759 179.825 854.819 181.12C854.663 179.533 854.902 178.69 855.064 177.053C856.495 175.222 854.39 176.754 852.926 174.964C855.632 169.713 864.19 128.91 862.252 125.581C863.922 122.906 867.374 121.973 867.658 118.303L865.61 110.559C867.792 109.821 869.579 108.337 872.04 107.153C876.138 99.6738 874.796 95.8504 874.284 93.9143C877.385 89.4086 877.747 86.5323 880.809 81.6296C881.644 80.2924 880.821 75.1806 882.647 74.0943C881.227 69.4769 881.661 70.6191 879.885 65.6535C879.529 65.3053 879.212 65.354 878.816 64.6088C876.556 64.553 874.613 64.4485 872.314 63.9958C871.918 63.2506 871.445 61.7115 871.011 60.5693L864.113 59.2111C862.03 70.8135 858.796 83.8018 856.596 94.2133C854.848 96.0936 853.84 105.516 853.044 107.25C851.123 117.216 851.234 121.632 849.313 131.597C847.882 133.429 846.769 135.212 845.694 137.391C843.139 147.455 845.143 158.027 838.428 165.102C840.722 168.779 838.979 167.435 841.557 167.442C841.746 172.651 840.761 169.176 838.456 171.948C840.516 173.243 840.393 175.277 839.915 176.962C839.514 179.442 839.28 177.06 837.259 176.161C837.248 182.61 828.022 219.89 827.704 219.938C829.208 222.125 828.495 221.429 829.564 222.474L829.681 223.664L826.825 224.103L828.717 230.26L825.544 230.747C827.114 240.177 821.001 243.533 822.537 249.341L819.364 249.829C820.388 253.701 819.397 253.45 820.822 254.843C820.059 260.199 817.159 263.465 815.204 269.809C817.025 271.947 817.331 278.348 817.014 278.396L813.84 278.884C813.4 280.966 817.003 284.845 815.728 288.265C814.853 289.205 812.626 292.77 812.465 294.407L814.436 301.357L812.214 301.699C811.457 303.83 812.242 308.544 814.135 314.701L810.961 315.188C811.429 319.952 812.526 327.842 811.807 330.37C818.059 338.275 819.997 341.604 829.116 342.621C830.146 343.269 829.473 342.969 831.455 343.471C832.429 330.427 846.504 309.729 845.446 302.236C845.691 298.169 846.359 301.693 847.434 299.513C850.017 296.295 849.182 297.632 848.08 292.966C850.897 292.131 849.31 292.374 851.888 292.381C858.62 275.633 875.823 257.275 881.413 235.463L883.318 235.171L881.319 244.343L881.786 249.106L878.763 254.406L877.527 258.222L878.902 265.667L878.106 267.401L876.352 272.506L876.502 277.318L875.183 283.565L874.899 287.236L874.77 292.494L877.855 297.661L875.31 301.276L876.173 306.784L879.102 310.364L878.3 315.323L881.941 319.599L884.63 324.021L887.915 327.949L891.595 332.622L891.233 335.498L897.496 336.954L903.436 341.683L905.502 339.754ZM839.48 175.82C838.294 173.585 839.046 174.678 837.938 173.236C838.055 174.427 838.094 174.824 838.528 175.966L839.48 175.82ZM850.342 201.149C848.878 199.36 849.59 200.056 848.521 199.011C848.56 199.408 848.995 200.551 849.073 201.344L850.342 201.149ZM821.345 319.235C820.632 318.538 820.554 317.744 820.476 316.951L822.38 316.658C822.775 317.403 822.853 318.197 823.566 318.894L821.345 319.235ZM1006.72 199.294L1007.47 197.163C1006.92 194.83 1006.29 191.703 1005.35 188.625C1005.07 185.846 1003.05 184.948 1000.83 185.289L999.244 185.533L999.127 184.342C995.915 184.432 995.202 183.736 990.999 183.576C991.945 186.654 990.988 190.025 991.066 190.818L988.989 199.196C988.749 200.039 989.106 200.387 988.51 200.882L987.196 203.904L986.244 204.05C984.657 204.294 983.828 202.407 982.402 201.014L981.929 199.475C981.1 197.587 979.552 198.228 979.079 196.689L976.54 197.079C975.627 197.622 976.378 198.715 975.744 198.813L973.361 200.791C973.043 200.839 973.795 201.933 973.517 202.379C972.765 201.285 971.1 200.735 970.466 200.832L970.148 200.881L966.101 202.309L966.535 203.451C966.413 205.484 965.655 207.616 964.781 208.556L960.138 210.478C955.695 211.16 948.485 229.594 949.203 227.066C944.955 229.733 931.665 255.146 932.055 259.115C928.247 259.7 928.558 262.876 926.927 265.947C927.879 265.801 928.553 266.1 928.67 267.291C925.769 270.558 927.628 273.093 927.506 275.126C922.306 277.94 919.867 289.194 920.529 295.942C920.607 296.736 920.685 297.53 921.398 298.226C919.494 298.519 919.054 300.601 919.21 302.189C919.561 305.762 922.528 309.738 926.492 310.741L926.609 311.932C926.013 312.427 925.696 312.475 926.052 312.824C927.238 315.059 932.588 317.058 931.636 317.204L932.588 317.058L932.9 320.234C935.4 319.447 933.54 316.912 935.366 315.826C936.318 315.679 936.552 318.061 937.504 317.915L940.043 317.525C940.082 317.922 940.795 318.618 941.747 318.472C949.68 317.254 944.77 313.172 947.509 311.543C947.626 312.734 948.339 313.43 948.656 313.381C949.291 313.284 949.252 312.887 949.135 311.696L949.018 310.505L950.566 309.865C951.796 309.273 954.942 301.939 955.059 303.13C954.942 301.939 954.625 301.988 953.873 300.895C955.343 299.46 959.98 300.762 958.678 297.336L958.282 296.591L960.07 295.107C959.992 294.314 960.827 292.976 960.71 291.786L960.593 290.595L961.545 290.448L963.739 283.261L964.769 283.909C965.086 283.86 965.086 283.86 965.047 283.463C965.086 283.86 965.442 284.209 965.442 284.209C966.394 284.062 967.63 280.246 968.466 278.909L969.1 278.811C970.888 277.328 971.801 276.785 971.684 275.594C971.528 274.006 972.085 273.115 971.372 272.418C972.92 271.778 974.746 270.691 974.79 267.864L977.224 259.834C978.81 259.59 978.939 254.332 980.486 253.692L980.063 269.069C980.853 270.559 980.375 272.244 980.608 274.626C980.759 279.438 981.46 286.584 981.538 287.378C981.733 289.363 982.206 290.902 982.919 291.598C982.006 292.141 981.488 293.43 981.922 294.572C983.186 297.601 984.138 297.455 984.255 298.646C984.294 299.043 983.219 301.223 983.414 303.208C983.648 305.589 985.83 304.851 986.932 309.517C986.298 309.615 987.445 311.453 987.801 311.802C990.651 314.587 991.086 315.73 993.541 317.77L995.562 318.669C996.197 318.571 996.592 319.316 996.631 319.713C996.67 320.11 996.352 320.159 996.391 320.556C996.469 321.35 996.787 321.301 997.421 321.204L998.056 321.106C999.086 321.754 999.481 322.499 1001.03 321.858L1002.58 321.218C1003.53 321.072 1003.89 321.42 1003.73 319.832L1000.17 316.35C998.702 314.56 998.151 312.227 996.447 311.28L995.261 309.044C994.866 308.299 993.914 308.445 993.758 306.857C994.593 305.52 994.515 304.726 993.964 302.393C993.452 300.457 993.179 297.678 992.433 293.36L992.166 287.357C991.259 284.676 993.007 282.796 991.543 281.006C991.504 280.609 993.091 280.365 992.974 279.174L992.818 277.586C993.135 277.538 993.931 275.803 993.814 274.613C993.698 273.422 992.985 272.725 992.668 272.774C992.668 272.774 992.428 273.617 991.793 273.714C990.841 273.86 990.764 273.066 990.764 273.066C990.725 272.669 991.281 271.778 991.203 270.984L991.164 270.587C992.038 269.647 992.239 268.407 992.005 266.026L992.562 265.134C992.445 263.943 991.176 264.138 991.137 263.741C991.098 263.344 992.684 263.101 992.529 261.513L992.49 261.116C994.076 260.872 993.603 259.333 994.477 258.393L996.303 257.306C996.225 256.513 995.63 257.007 994.678 257.153L993.726 257.299C994.522 255.565 994.845 252.292 995.641 250.558C995.524 249.367 995.524 249.367 994.572 249.513C994.455 248.322 993.982 246.783 994.895 246.24L995.847 246.094L995.769 245.3C995.652 244.109 997.122 242.675 997.083 242.278C997.005 241.484 995.496 242.521 995.302 240.536C994.99 237.361 998.598 238.015 999.037 235.933L998.882 234.345C998.141 226.803 1003.14 225.229 1002.4 217.687C1001.45 217.833 1000.66 216.343 1000.54 215.152L1000.42 213.961L1001.38 213.815C1001.42 214.212 1001.73 214.163 1001.73 214.163C1002.37 214.065 1002.96 213.571 1003.24 213.125L1002.61 209.998C1005.47 209.56 1003.61 207.025 1005.47 206.335L1004.64 204.448L1003.69 204.594C1003.06 204.692 1002.11 204.838 1001.99 203.647C1003.58 203.403 1003.46 202.212 1003.66 200.973L1006.72 199.294ZM979.212 234.143C978.338 235.083 977.385 235.229 977.502 236.42C978.137 236.323 978.493 236.671 978.493 236.671C978.61 237.862 974.273 246.184 974.073 247.424L974.19 248.614C974.267 249.408 973.989 249.854 973.354 249.952C973.354 249.952 973.037 250 972.363 249.701C972.402 250.098 972.163 250.94 972.163 250.94L970.409 256.045L969.457 256.191C967.87 256.435 968.577 260.356 967.308 260.551L966.395 261.094L966.985 263.824L965.081 264.117C965.71 267.244 966.779 268.288 966.857 269.082C966.896 269.479 966.896 269.479 966.578 269.528C965.944 269.625 965.905 269.228 965.27 269.326C965.27 269.326 964.953 269.375 964.992 269.772C965.07 270.566 965.148 271.359 965.543 272.105C964.591 272.251 964.118 270.712 964.04 269.918C963.806 267.536 965.281 262.877 965.164 261.686L964.847 261.735C962.943 262.027 964.045 266.693 960.354 268.469L960.471 269.66C960.549 270.454 960.588 270.851 959.953 270.948C960.109 272.536 959.19 276.304 957.921 276.499C957.286 276.596 956.93 276.248 956.574 275.9L955.02 279.765C955.137 280.956 942.939 294.515 941.586 297.141C939.676 300.657 938.568 299.216 936.463 300.748C934.999 298.958 934.565 297.816 934.37 295.831C934.136 293.449 934.894 291.318 936.247 288.693L937.121 287.753C937.004 286.562 937.917 286.019 937.8 284.828C936.531 285.023 936.336 283.038 936.141 281.053L937.093 280.907C936.659 279.765 937.533 278.824 938.763 278.232C937.694 277.188 935.868 278.274 935.078 276.784C932.032 272.013 932.389 272.361 931.643 268.044C933.307 268.594 933.664 268.942 933.78 270.133C933.858 270.927 936.87 272.076 936.909 272.473C936.948 272.87 937.344 273.615 938.218 272.675C938.852 272.578 938.975 270.544 938.975 270.544L943.178 270.704C943.145 267.083 942.561 261.128 947.8 258.712L948.434 258.614C950.656 258.273 947.41 254.742 950.266 254.304C954.208 245.236 959.18 236.817 963.55 232.116L963.395 230.528L964.347 230.382C966.568 230.041 965.978 227.31 966.496 226.022L967.13 225.925C969.352 225.583 968.762 222.853 971.618 222.415L972.253 222.317C974.791 221.927 972.815 218.201 975.671 217.763L976.623 217.617L980.242 211.822L982.864 209.002C984.846 209.503 985.676 211.391 985.754 212.185C986.962 224.491 977.308 234.435 979.212 234.143ZM977.558 250.112C976.923 250.209 976.528 249.464 976.411 248.273C976.294 247.082 976.533 246.24 977.447 245.696C978.081 245.599 978.399 245.55 978.477 246.344C978.593 247.535 977.758 248.872 977.875 250.063L977.558 250.112ZM963.939 282.022C964.257 281.973 964.335 282.767 964.73 283.512C964.335 282.767 963.622 282.07 963.939 282.022ZM1045.29 300.152C1052.64 289.755 1056.43 279.099 1062.32 266.912C1076.16 243.833 1092.38 222 1101.48 206.498C1104.71 199.959 1106.77 201.254 1104.95 199.116L1105.9 198.97C1106.58 196.045 1106.26 199.318 1107.92 199.868C1108.24 196.595 1108.16 199.026 1107.21 195.947C1111.58 191.247 1116.94 190.021 1121.31 185.32C1123.06 183.44 1123.34 182.994 1124.81 178.335C1126.63 180.473 1127.47 179.136 1129.77 176.364C1129.58 174.38 1131.24 174.93 1131.05 172.945C1127.84 173.035 1127.48 172.687 1126.01 174.122C1121.37 176.044 1110 191.49 1105.43 197.431C1088.61 219.758 1072.24 240.002 1056.29 267.838C1054.29 273.786 1052.27 276.112 1046.78 285.82C1045.86 286.363 1044 283.828 1042.77 284.42C1041.38 266.904 1048.7 249.661 1051.78 235.085C1053.14 229.235 1051.68 224.221 1052.69 218.023C1053.53 213.461 1057.15 207.667 1057.95 202.708C1063.64 165.568 1074.37 110.732 1082.75 78.0137C1087.49 67.2123 1091.56 52.8869 1092.77 42.2246C1091.55 36.3676 1094.49 33.4985 1091.68 31.1096C1086.29 25.4893 1082.97 24.3889 1079.91 26.0671C1078.64 26.2621 1077.41 26.8541 1076.46 27.0003C1074.46 36.1722 1072.77 48.5198 1070.61 59.3283L1067.11 66.3133C1066.79 69.5865 1069.72 69.9418 1069.56 71.5784C1069.13 86.9555 1062.76 104.053 1060.67 118.879C1059.27 127.557 1056.9 142.829 1055.46 151.11C1053.5 160.679 1051.54 170.248 1049.86 179.371C1050.33 184.134 1047.71 183.73 1048.02 186.906L1046.75 190.326C1047.42 190.625 1047.42 190.625 1047.5 191.419C1047.77 194.198 1044.27 197.958 1044.43 199.546L1044.55 200.737C1044.86 203.913 1042.9 210.257 1043.02 211.448L1043.06 211.845C1042.98 214.276 1041.27 216.553 1041.38 217.744L1041.42 218.141C1042.12 225.286 1037.99 229.144 1038.15 230.732L1038.34 232.717C1038.38 233.114 1038.5 234.305 1038.18 234.353C1037.07 232.912 1032.9 259.341 1031.32 259.585C1031 259.633 1031.08 260.427 1031.12 260.824L1030.71 266.528C1028.59 277.734 1027.35 284.774 1026.42 294.991C1025.85 302.331 1025.29 306.447 1028.05 311.663C1031.38 315.988 1034.83 315.055 1038.15 319.38C1040.02 318.691 1041.88 318.001 1043.79 317.709C1042.72 313.44 1043.83 314.881 1042.72 313.44C1042.93 308.976 1041.47 307.186 1042.9 305.354C1043.85 305.208 1045.08 304.616 1046.35 304.421L1045.29 300.152ZM1083.02 61.0488C1085.26 51.0342 1089.45 37.8997 1089.77 34.6265C1092.31 34.2366 1086.33 52.0789 1084.89 60.3594L1083.93 60.5056C1083.62 60.5543 1083.3 60.6031 1083.02 61.0488ZM1081.4 80.6392C1080.45 80.7855 1078.94 78.5986 1078.79 77.0108C1078.67 75.8199 1081.57 75.7782 1081.29 72.9994L1081.18 71.8085C1081.02 70.2207 1081.38 67.3444 1082.3 63.5768C1082.57 66.3555 1084.63 70.8754 1083.08 71.5161C1081.61 72.9507 1082.35 80.493 1081.4 80.6392ZM1058.09 118.872L1059.05 115.502L1060.37 109.255L1060.3 105.236L1065.16 89.177L1065.77 82.2336L1067.25 77.5746L1067.38 72.3165L1065.91 73.7511L1063.95 83.32L1063.62 86.5932L1062.74 90.7578L1059.51 103.746L1057.75 108.851L1056.95 113.809L1056.11 118.371L1056.46 121.944L1057.17 125.864L1058.09 118.872ZM1055.45 134.591L1056.53 129.186L1055.58 126.108L1054.5 131.512L1054.06 136.819L1055.45 134.591ZM1052.01 148.819L1051.54 147.279L1049.95 150.748L1051.65 154.919L1052.01 148.819ZM1045.86 174.746L1048.17 171.975L1049.96 167.267L1050.68 161.514L1051.76 156.11L1050.69 155.066L1050.57 157.099L1048.9 159.773L1049.29 166.967L1046.78 170.979L1045.23 174.844L1045.93 178.765L1045.86 174.746ZM1044.33 188.682L1045.16 187.345L1045.61 182.038L1043.46 189.622L1044.33 188.682ZM1027.99 301.196L1029.47 293.313L1031.98 289.301L1030.1 296.44L1030.65 301.997L1028.03 301.593L1027.99 301.196ZM1148.32 138.862C1147.74 132.908 1153.47 119.133 1153.31 117.545C1153.12 115.56 1150.51 111.932 1150.39 110.741C1150.27 109.55 1157.18 107.684 1156.67 102.523L1156.48 100.538C1160.06 91.1226 1160.56 76.5394 1162.71 75.4044C1166.16 71.2468 1162.37 62.1583 1166.86 58.6484C1167.62 56.5174 1169.09 55.0828 1168.82 52.304L1168.5 49.1283C1168.46 48.7313 1168.39 47.9374 1167.32 46.8927C1169.9 43.6753 1173.09 33.5145 1172.9 31.5297C1172.86 31.1328 1172.74 29.9419 1172.31 28.7997L1172.19 27.6088C1171.88 24.4331 1171.92 21.6056 1171.69 19.2238C1171.34 15.6511 1173.16 14.5648 1172.93 12.183C1172.66 9.40422 1172.31 5.83155 1168.9 3.93718L1167.87 3.28945C1163.71 0.30167 1163.39 0.350416 1161.53 1.03986C1160.58 1.18607 1159.94 1.28355 1159.98 1.68049C1159.03 1.82673 1158.71 1.87545 1158.79 2.66938L1159.15 3.01764C1158.19 3.16386 1158.27 3.95777 1158.27 3.95777C1158.31 4.35473 1155.14 4.84213 1155.37 7.22392C1155.41 7.6209 1154.06 10.2464 1154.13 11.0403C1154.17 11.4373 1152.9 14.8567 1153.22 14.8079C1153.85 14.7105 1154.17 14.6617 1154.69 13.3734C1155.16 14.9125 1155.28 16.1034 1155.35 16.8973C1155.94 22.8518 1153.83 24.3839 1153.95 25.5747C1153.99 25.9717 1154.11 27.1626 1154.5 27.9078C1152.28 28.249 1149.33 37.5671 1148.44 44.9562C1148.32 46.9897 1148.87 49.3228 1149.94 50.3674C1151.49 46.5023 1152.61 41.495 1153.45 36.9334L1155.99 36.5435C1156.31 36.4948 1157.9 36.2511 1157.98 37.045C1158.09 38.2359 1151.86 63.3698 1150.51 65.9953C1150.63 67.1861 1150.35 67.6319 1150.46 68.8228C1150.54 69.6167 1150.58 70.0137 1151.02 71.1558C1148.35 73.5793 1145.44 86.5188 1145.11 89.792L1145.27 91.3799C1145.85 97.3343 1142.91 100.204 1143.46 105.761L1143.62 107.349C1142.15 108.784 1140.95 109.772 1141.19 112.154L1141.66 113.693C1141.54 115.727 1137.99 128.764 1135.04 134.858C1133.37 137.532 1125.01 180.32 1125.36 183.893L1125.55 185.878C1125.59 186.274 1125.67 187.068 1125.35 187.117C1123.77 187.361 1119.6 213.79 1118.49 212.349C1118.17 212.397 1118.29 213.588 1118.33 213.985L1118.52 215.97C1118.68 217.558 1114.55 221.416 1115.25 228.561L1115.29 228.958C1115.4 230.149 1113.69 232.426 1113.61 234.857L1113.65 235.254C1113.77 236.445 1111.81 242.789 1112.12 245.965L1112.24 247.156C1112.4 248.744 1108.9 252.504 1109.17 255.283C1109.25 256.077 1109.25 256.077 1109.92 256.376L1110.48 258.709C1110.79 261.885 1108.33 259.845 1108.8 264.608L1109.19 268.578C1109.31 269.769 1109.42 270.96 1108.79 271.057C1109.14 274.63 1110.56 279.247 1110.68 280.438C1108.45 280.779 1107.94 282.068 1107.81 284.101L1108.4 286.831C1107.65 288.962 1103.75 291.978 1103.91 293.565L1105.73 298.928C1105.53 300.168 1101.83 301.943 1101.99 303.531C1101.99 303.531 1105.27 307.459 1108.17 307.417C1110.07 307.125 1121.98 300.461 1121.48 295.3L1121.4 294.506C1122.35 294.36 1123.15 292.626 1123.03 291.435L1122.63 290.69C1122.4 288.308 1122.96 284.192 1122.65 281.016C1122.18 276.253 1120.59 279.721 1119.41 277.485C1121.31 277.193 1122.18 276.253 1121.95 273.871L1121.83 272.68C1125.84 270.856 1124.92 251.655 1126.83 251.363C1128.3 249.928 1128.5 248.688 1128.38 247.497L1128.15 245.116C1128.03 243.925 1127.91 242.734 1128.75 241.397C1128.71 241 1128.31 240.255 1128.31 240.255L1127.41 237.573C1128.76 234.948 1130.47 232.671 1130.51 229.843C1130.2 226.667 1131.3 211.59 1133.92 208.769C1133.17 207.676 1133.05 206.485 1132.97 205.691C1132.97 205.691 1139.54 193.803 1138.95 187.849L1138.48 186.31C1138.25 183.928 1142.06 183.343 1143.09 180.766C1143.33 179.924 1140.04 179.22 1139.81 176.838C1141.39 176.595 1142.48 167.966 1142.48 167.966C1141.81 167.666 1141.73 166.872 1141.69 166.476C1142.32 166.378 1142.64 166.329 1142.56 165.535L1142.52 165.138C1147.14 156.37 1146.95 151.161 1148.32 138.862ZM1147.88 52.2965C1146.92 52.4427 1146.17 51.3493 1145.18 51.0985C1145.34 52.6864 1145.02 52.7351 1144.5 54.0235C1146.09 53.7798 1146.52 54.922 1147.47 54.7757L1147.44 54.3788C1147.36 53.5849 1147.99 53.4874 1147.88 52.2965ZM1141.09 98.0655C1141.58 93.1557 1145.65 75.6058 1145.07 69.6514L1144.95 68.4605C1144.68 65.6817 1147.57 65.64 1147.46 64.4491C1147.3 62.8613 1145.8 60.6744 1144.85 60.8206C1143.89 60.9669 1144.64 68.5092 1143.17 69.9438C1141.02 71.0789 1146.44 80.3207 1142.31 80.9543L1141.36 81.1005C1139.92 89.381 1138.55 98.4554 1141.09 98.0655ZM1254.37 228.147C1240.7 239.916 1246.85 243.406 1237.8 246.407C1230.42 249.959 1222.7 260.008 1214.05 263.754C1210.24 264.339 1206.83 265.669 1204.84 268.392L1183.26 271.707C1178.39 271.247 1176.46 264.694 1175.95 259.533C1174.97 249.609 1177.25 239.991 1176.39 231.258C1176.16 228.876 1175.61 226.543 1175.38 224.161C1175.14 221.78 1178.19 223.326 1177.88 220.15C1177.84 219.753 1177.09 218.66 1177.01 217.866C1176.9 216.675 1177.53 216.577 1177.85 216.529C1181.66 215.944 1187.72 218.639 1192.56 218.702C1192.28 219.148 1192.28 219.148 1192.36 219.942C1192.47 221.133 1193.78 221.334 1195.69 221.042C1201.4 220.165 1198.07 215.84 1201.57 215.304C1202.91 215.903 1203.66 216.996 1205.57 216.704L1207.47 216.411C1211.6 215.778 1224.13 195.721 1224.13 195.721C1224.01 194.53 1223.33 194.23 1223.22 193.039L1224.17 192.893C1226.71 192.503 1227.58 191.563 1227.43 189.975C1227.35 189.181 1226.56 187.691 1226.44 186.5C1226.88 184.418 1228.11 183.826 1227.76 180.253C1228.4 180.156 1228.79 180.901 1229.43 180.803C1229.43 180.803 1229.74 180.755 1229.67 179.961C1228.67 179.71 1228.24 178.568 1227.49 177.474C1229 176.437 1229.28 175.991 1229.16 174.8C1228.73 170.434 1223.97 171.165 1223.74 168.783C1223.5 166.401 1226.36 165.962 1226.09 163.184C1225.46 156.832 1210.2 152.326 1207.98 152.667C1203.22 153.398 1198.65 156.114 1195.08 159.081L1195.2 160.272C1192.93 163.44 1189.95 165.913 1186.3 168.085L1185.35 168.232C1182.81 168.622 1179.27 171.985 1178.43 176.547L1178.19 180.614L1176.28 180.906C1175.33 181.053 1174.26 183.232 1174.3 183.629C1174.3 183.629 1174.37 184.423 1174.69 184.375C1174.09 188.093 1165.82 202.259 1165.78 201.862C1165.93 203.449 1167.96 204.348 1168.07 205.539C1167.99 207.969 1166.4 208.213 1166.28 210.247L1165.92 213.123C1164.73 214.112 1164.29 216.194 1163.09 217.183C1163.06 213.562 1165.53 209.153 1165.29 206.771C1165.22 205.977 1164.86 205.629 1163.83 204.982C1161.84 210.929 1160.09 212.809 1160.56 217.573C1160.67 218.764 1160.79 219.955 1161.58 221.445C1161.93 225.018 1157.6 226.891 1158.42 235.227C1158.77 238.8 1159.64 241.084 1160.59 240.938C1160.91 240.889 1161.47 239.998 1162.26 238.264C1161.63 238.361 1161.31 238.41 1161.2 237.219C1161.08 236.028 1163.3 235.687 1162.95 232.114C1162.72 229.733 1162.24 228.193 1161.53 227.497C1162.16 227.4 1162.56 228.145 1162.56 228.145C1166.05 227.609 1163.8 221.104 1166.66 220.665C1167.29 220.568 1167.41 221.759 1167.49 222.553C1167.84 226.125 1165.25 229.343 1165.49 231.724C1165.61 232.915 1165.68 233.709 1166.67 233.96L1166.79 235.151L1165.2 235.395C1165.79 241.349 1164.24 245.214 1161.18 246.892C1161.42 246.05 1162.01 245.555 1161.9 244.364C1161.82 243.571 1161.15 243.271 1159.8 242.672C1159.4 245.151 1157.29 246.683 1157.64 250.256C1161.77 249.622 1159.98 254.33 1165.69 253.453L1166.96 253.258L1167.03 257.276L1165.44 257.52C1165.2 258.363 1165.24 258.76 1165.4 260.348C1166.49 271.463 1180.91 280.53 1180.95 280.927C1181.9 280.781 1182.22 280.732 1182.1 279.542C1184.39 283.219 1193.55 287.857 1200.21 286.834C1201.8 286.59 1203.03 285.998 1203.86 284.661L1207.35 284.125C1211.4 282.697 1211.53 277.439 1216.29 276.708L1218.51 276.367C1218.95 274.285 1221.62 268.637 1223.17 267.996L1224.44 267.801C1231.1 266.777 1226.16 259.075 1231.23 258.295C1232.19 258.149 1232.34 259.737 1233.93 259.493C1236.15 259.152 1238.34 255.189 1238.1 252.807L1237.95 251.219C1240.45 247.208 1247.45 239.687 1249.35 239.394L1250.3 239.248C1252.93 236.428 1255.47 232.813 1257.02 228.948C1256.98 228.551 1256.27 227.855 1255.32 228.001L1254.37 228.147ZM1183.8 191.841C1184.04 190.998 1183.68 190.65 1183.05 190.747C1182.73 190.796 1182.41 190.845 1182.14 191.29C1184.01 187.376 1186.35 185.002 1188.66 182.23C1190.44 180.747 1191.2 178.616 1193.42 178.274L1195.33 177.982C1195.73 175.503 1198.03 175.955 1198.86 174.618C1198.63 172.237 1196.44 172.975 1196.21 170.593C1196.05 169.005 1197.84 167.522 1198.79 167.375C1199.11 167.327 1199.78 167.626 1199.86 168.42L1203.04 167.933C1203.91 166.993 1205.46 166.352 1206.73 166.157C1209.58 165.718 1211.76 168.205 1213.9 170.294L1213.49 175.998C1212.37 181.005 1213.46 192.12 1190.05 202.97C1187.9 204.105 1180.21 204.481 1180.73 203.192L1183.8 191.841ZM1185.94 190.705C1185.94 190.705 1186.58 190.608 1187.49 190.065C1188.09 186.346 1190.31 186.005 1190.99 183.08C1190.92 182.286 1190.6 182.334 1189.96 182.432C1188.06 182.724 1185.35 187.975 1185.59 190.357C1185.63 190.754 1185.63 190.754 1185.94 190.705ZM1344.04 180.124C1343.8 177.742 1342.46 173.919 1342.46 173.919L1339.22 167.163L1337 167.505C1336.05 167.651 1335.1 167.797 1334.35 166.704C1335.26 166.161 1335.26 166.161 1335.22 165.764C1335.06 164.176 1326.34 163.904 1325.39 164.05C1324.47 164.593 1323 166.028 1322.49 167.316L1323.24 168.41C1321.33 168.702 1321.45 169.893 1320.18 170.088L1317.64 170.478C1315.74 170.77 1313.28 171.954 1313.51 174.336L1312.88 174.433C1312.75 176.467 1307.8 175.213 1308.07 177.992L1308.19 179.183C1307.11 181.363 1297.82 191.656 1298.32 196.816L1298.01 196.865C1296.74 197.06 1296.81 197.854 1296.97 199.442L1297.16 201.427C1297.28 202.617 1297.04 203.46 1296.09 203.606L1293.23 204.045C1291.33 204.337 1290.77 205.229 1290.93 206.817C1291.01 207.611 1291.01 207.611 1291.44 208.753C1288.59 209.191 1289.01 213.558 1287.74 213.753L1286.79 213.899L1282.49 222.618C1281.58 226.386 1274.45 242.39 1271 243.323L1277.9 218.488C1277.47 214.122 1283.72 202.283 1283.1 195.931C1283.02 195.137 1282.38 195.235 1282.38 195.235C1282.9 193.946 1285.17 190.778 1285.25 191.572L1285.17 190.778C1287.47 188.006 1288.72 177.741 1288.96 173.674C1289.16 172.434 1289.37 171.194 1289.17 169.21C1288.5 168.91 1288.3 166.925 1288.22 166.131C1287.68 160.574 1288.56 156.409 1281.11 152.718C1279.77 148.895 1272.83 147.139 1264.58 148.407C1264.62 148.804 1264.34 149.249 1264.38 149.646L1265.97 149.403C1270.41 148.72 1271.23 157.056 1272.05 165.393C1271.41 165.49 1271.31 177.594 1270.12 178.583C1269.92 179.823 1270.03 181.013 1270.15 182.204C1270.23 182.998 1270.66 184.14 1272.33 184.691C1270.81 188.953 1267.66 202.735 1267.66 202.735L1267.77 203.926C1267.93 205.514 1267.33 206.008 1267.53 207.993C1266.97 212.109 1265.61 214.734 1266 218.704L1266.12 219.895C1264.33 221.378 1263.26 223.558 1262.54 226.086L1262.74 228.071C1263.01 230.85 1261.14 231.539 1260.39 233.67L1260.46 234.464C1261.32 243.197 1253.81 252.007 1255.25 266.694L1255.29 267.091C1254.7 267.586 1254.42 268.032 1254.49 268.826C1254.73 271.207 1257.9 273.944 1259.56 274.495L1259.72 276.082C1264.16 275.4 1262.74 270.783 1265.08 268.408L1268.57 267.872C1269.21 267.774 1267.03 268.512 1267.1 269.306L1267.26 270.894C1267.34 271.688 1267.73 272.433 1268.01 271.988C1270.41 263.561 1276.3 251.374 1280.28 242.703L1281.55 242.508C1281.95 240.029 1282.43 238.344 1284.29 237.654L1286.2 237.362L1285.57 234.235L1286.84 234.04C1289.26 229.235 1293.43 225.773 1294.51 220.369L1295.67 218.983C1300.56 212.994 1306.17 201.253 1310.86 193.279C1311.26 190.799 1321.43 179.566 1322.94 178.529L1323.89 178.382C1323.78 177.192 1323.78 177.192 1324.73 177.045L1326.18 185.284C1323.24 188.153 1326.91 199.275 1323.97 205.369L1324.59 211.72C1324.98 215.69 1321.72 218.608 1322.07 222.181C1322.31 224.563 1323.18 226.847 1324.24 227.891C1322.57 230.566 1326.28 245.309 1326.32 245.706C1327.22 251.612 1335.71 269.246 1337.38 269.796L1338.33 269.65C1336.83 264.238 1336.29 258.681 1336.05 256.299L1335.94 255.108C1335.86 254.314 1335.78 253.52 1336.73 253.374C1336.69 252.977 1338.2 232.196 1338.83 232.098C1339.11 231.653 1341.41 228.881 1341.34 228.087C1341.34 228.087 1339.28 226.792 1339.16 225.601C1339.12 225.204 1339.08 224.807 1339.64 223.915L1339.48 222.327C1342.02 221.938 1342.31 215.043 1342.83 210.53L1342.52 207.354C1342.41 206.163 1345.2 198.482 1344.73 193.718C1344.65 192.924 1344.53 191.734 1344.1 190.591L1344.14 187.764C1344.03 186.573 1343.63 185.828 1342.65 182.353L1343.6 182.206C1343.6 182.206 1344.12 180.918 1344.04 180.124ZM1462.41 276.784C1460.62 278.268 1458.6 277.369 1456.38 277.711C1455.42 277.857 1454.39 277.209 1453.44 277.355L1453.33 276.164C1453.05 273.386 1451.15 273.678 1450.91 271.296C1451.23 271.248 1454.22 262.326 1454.11 261.136C1454.03 260.342 1453.71 260.39 1452.72 260.14L1451.77 260.286C1452.84 258.106 1454.59 256.226 1454.36 253.844C1454.28 253.05 1453.84 251.908 1452.85 251.657C1454.12 251.462 1455 250.522 1455.91 249.979C1455.56 246.406 1454.37 244.171 1454.14 241.789C1454.02 240.598 1454.54 239.31 1455.69 237.924L1455.38 234.748C1455.03 231.175 1454.01 227.303 1453.58 222.937C1452.25 209.44 1448.51 194.299 1445.47 186.304C1440.66 173.344 1436.83 163.858 1435.06 155.668C1434.7 152.095 1436.25 151.455 1436.17 150.661C1436.06 149.47 1434.35 148.523 1434.24 147.332C1434.2 146.935 1434.75 146.043 1436.02 145.849C1436.1 146.642 1436.78 146.942 1436.78 146.942C1438.68 146.649 1440.72 137.875 1441.44 135.347C1440.8 135.444 1440.48 135.493 1440.37 134.302L1440.25 133.111C1442.87 130.291 1446.81 121.223 1446.58 118.841L1446.54 118.444L1445.59 118.591C1444.64 118.737 1444.36 119.183 1443.41 119.329C1442.77 119.426 1442.49 119.872 1441.98 121.16L1440.07 124.677C1438.99 126.857 1437.96 126.209 1435.3 128.633L1434.35 128.779C1434.04 125.603 1431.46 122.372 1425.75 123.249C1424.8 123.395 1419.05 120.651 1419.25 122.636L1419.37 123.827C1418.45 124.37 1417.5 124.516 1417.7 126.501L1417.74 126.898L1413.93 127.483C1410.75 127.971 1413.13 132.442 1412.25 133.382C1411.62 133.479 1410.59 132.832 1410.27 132.88C1404.87 133.709 1399.57 148.626 1394.25 153.473L1394.37 154.664L1393.42 154.81C1392.58 156.147 1392.34 156.99 1392.46 158.181C1392.58 159.372 1393.01 160.514 1393.05 160.911C1393.13 161.705 1393.13 161.705 1392.81 161.754C1392.17 161.851 1391.22 161.997 1389.84 161.001C1388.28 164.867 1387.76 166.155 1387.8 169.776L1388.03 172.158L1386.13 172.451C1384.34 173.934 1380.04 185.878 1380 185.481L1375.87 186.114C1374.07 194.047 1368.26 207.028 1366.44 208.114L1366.55 209.305C1364.88 211.979 1363.02 212.669 1363.45 217.035L1363.56 218.226L1362.61 218.372C1361.26 220.998 1359.5 226.103 1359.85 229.675C1359.89 230.072 1360.01 231.263 1360.41 232.008L1361.36 231.862L1361.75 235.832C1361.86 237.023 1361.98 238.214 1361.03 238.36L1360.08 238.506C1358.29 239.989 1360.74 245.254 1358.87 245.944C1358.44 244.802 1358.6 243.165 1357.33 243.36C1357.57 245.742 1358.63 246.787 1358.67 247.183C1358.79 248.374 1357.92 249.315 1358.07 250.902C1359.09 261.223 1373.27 267.91 1373.35 268.703C1373.39 269.1 1374.74 269.699 1375.69 269.553C1377.59 269.261 1378.47 268.321 1378.35 267.13L1379.3 266.983C1379.38 267.777 1380.05 268.077 1380.05 268.077L1380.37 268.028C1381.12 269.122 1381.52 269.867 1382.47 269.721C1384.37 269.428 1386.68 266.656 1386.48 264.672L1388.7 264.33C1391.01 261.559 1394.08 253.431 1393.61 248.668L1393.38 246.286C1393.18 244.301 1394.02 242.964 1395.92 242.672L1395.8 241.481C1399.49 239.705 1399.98 234.795 1401.85 230.881C1400.9 231.028 1400.54 230.679 1400.46 229.885C1400.35 228.695 1401.06 226.166 1401.34 225.721L1401.11 223.339L1402.06 223.193C1403.57 222.155 1403.73 220.519 1404.25 219.23L1406.76 211.994C1408.99 205.204 1417.59 187.766 1418.55 184.395C1420.74 180.433 1424.21 166.602 1426.43 166.261C1427.38 166.114 1427.85 170.878 1428.84 174.353L1429.79 174.207C1429.83 174.604 1429.27 175.495 1429.31 175.892C1429.5 177.877 1431.13 178.03 1431.36 180.412C1431.48 181.603 1430.85 181.7 1431.08 184.082C1431.86 192.022 1434.87 193.171 1435.22 196.743L1435.65 201.11C1436.12 205.874 1437.3 208.109 1437.42 209.3C1437.46 209.697 1437.54 210.491 1437.38 212.128L1440.14 240.312C1439.23 240.855 1439.35 242.046 1439.54 244.031C1439.89 247.604 1441.31 252.221 1441.43 253.412C1441.58 255 1440.71 255.94 1440.87 257.528L1440.98 258.719C1439.99 258.468 1439.36 258.565 1439.36 258.565C1439.04 258.614 1441.18 260.703 1441.41 263.085L1441.53 264.276C1440.58 264.422 1439.78 266.156 1439.86 266.95C1440.01 268.538 1441.28 268.343 1442.03 269.437C1440.56 270.871 1439.41 272.257 1439.72 275.433L1438.77 275.579C1438.49 279.249 1437.89 282.968 1434.08 283.553C1432.17 283.845 1430.15 282.947 1429.2 283.093C1429.2 283.093 1428.88 283.142 1428.92 283.539L1430.07 285.378L1426.26 285.962C1425.23 285.315 1424.56 285.015 1423.61 285.161C1422.34 285.356 1420.87 286.791 1420.03 288.128L1419.08 288.274C1411.42 292.272 1404.8 290.468 1398.21 295.51C1396.62 295.753 1396.74 296.944 1395.47 297.139C1394.52 297.285 1393.52 297.035 1392.57 297.181C1390.03 297.571 1389.24 299.305 1388.09 300.691L1385.23 301.129C1382.17 306.032 1374 304.869 1374.51 310.029L1371.65 310.468C1369.11 310.858 1367.32 312.341 1366.49 313.679L1364.27 314.02C1362.56 316.297 1357.72 316.234 1357.51 320.698L1355.61 320.991C1351.64 323.212 1344.81 329.097 1345 331.082L1343.1 331.374C1342.9 332.614 1342.3 333.108 1341.99 333.157C1341.35 333.254 1341.03 333.303 1340.36 333.004C1338.57 334.487 1335.99 337.704 1335.75 338.547L1335.63 337.356C1331.31 339.229 1331.93 345.581 1330.03 345.873C1329.07 346.02 1328.72 345.671 1326.94 343.93C1325.9 346.507 1325.34 347.398 1325.46 348.589C1325.5 348.986 1325.62 350.177 1326.37 351.271C1334.07 347.67 1340.86 341.389 1345.71 338.227C1345.82 339.418 1346.38 338.526 1346.7 338.478C1350.04 333.129 1376.35 319.013 1377.07 316.485C1380.05 314.013 1389.02 310.218 1388.07 310.364L1390.29 310.023C1391.24 309.877 1392.91 310.427 1393.86 310.281C1394.81 310.135 1395.05 309.292 1394.93 308.101L1394.82 306.91L1395.77 306.764C1397.52 304.884 1401.73 301.819 1401.09 301.917C1403 301.624 1403.67 301.924 1403.99 301.875C1404.62 301.778 1404.94 301.729 1406.8 301.04C1407.79 301.29 1408.75 301.144 1409.7 300.998C1415.41 300.12 1423.51 294.041 1430.81 292.92C1432.71 292.627 1434.06 293.226 1436 293.331C1436.47 298.094 1434.65 299.181 1434.76 300.372L1434.8 300.769C1434.56 301.611 1435.04 303.15 1434.08 303.297L1433.13 303.443L1433.25 304.634C1433.56 307.81 1431.66 308.102 1431.57 310.532C1432.84 310.338 1433.52 310.637 1433.52 310.637C1433.63 311.828 1431.85 313.311 1431.96 314.502L1433.23 314.307C1434.82 314.063 1435.1 313.618 1435.02 312.824C1434.9 311.633 1434.47 310.491 1434.43 310.094C1434.31 308.903 1435.26 308.757 1435.58 308.708C1436.53 308.562 1436.69 310.15 1437.4 310.846C1436.05 313.472 1437.03 316.947 1434.18 317.385L1431.32 317.824C1430.84 319.509 1430.64 320.749 1429.77 321.689L1429.53 319.307L1427 319.697L1427.27 322.476C1427.62 326.049 1425.23 331.251 1424.47 333.382C1424.75 336.161 1424.66 338.591 1424.22 340.674L1427.14 330.959C1431.62 327.449 1433.93 321.453 1437.35 316.898L1438.3 316.752C1438.86 315.86 1438.82 315.463 1438.74 314.669C1438.7 314.272 1437.99 313.576 1437.88 312.385C1437.76 311.194 1439.34 310.951 1439.23 309.76C1438.99 307.378 1437.29 306.431 1437.17 305.24C1437.13 304.843 1437.13 304.843 1438.01 303.903C1440.86 306.688 1440.66 304.704 1443 308.778C1443.68 302.628 1449.56 296.89 1449.02 291.332L1448.74 288.554C1448.67 287.76 1448.39 284.981 1449.66 284.786L1449.78 285.977C1449.9 287.168 1450.57 287.467 1450.89 287.419C1451.84 287.272 1452.63 285.538 1454.22 285.295L1455.17 285.148C1457.4 284.807 1457.8 282.328 1460.02 281.987L1466.36 281.012C1465.94 276.645 1463.39 280.26 1462.41 276.784ZM1431.39 141.322C1430.76 141.419 1430.8 141.816 1430.56 142.659C1429.24 145.681 1422.23 143.132 1422.7 147.896C1421.7 147.645 1420.67 146.997 1420.52 145.409C1420.44 144.615 1420.4 144.218 1421.35 144.072C1423.18 142.986 1423.46 139.316 1426.32 138.877C1426.64 138.828 1427.67 139.476 1428.3 139.379C1430.52 139.037 1431.16 135.715 1432.75 135.472C1433.07 135.423 1433.78 136.119 1434.14 136.468C1430.96 136.955 1432.54 139.936 1431.71 141.273L1431.39 141.322ZM1421.21 155.779C1421.21 159.004 1419.3 162.521 1417.46 170.056C1416.3 174.666 1415.07 178.483 1414.47 182.201L1414.58 183.392C1414.34 184.235 1413.75 184.729 1413.43 184.778C1412.8 184.876 1412.19 188.595 1411.16 187.947C1407.71 192.104 1407.55 193.741 1404.16 201.917L1404.47 205.093L1402.57 205.385C1396.52 215.985 1386.96 240.018 1380.73 242.184L1378.51 242.525C1377.48 241.877 1376.81 241.578 1376.49 241.626C1374.59 241.919 1375.66 239.739 1375.08 233.785L1374.8 231.006C1374.76 230.609 1374.52 231.452 1374.52 231.452C1373.89 231.549 1373.85 231.152 1373.73 229.961C1373.54 227.976 1375.52 228.478 1375.33 226.493L1375.29 226.096C1378.23 220.002 1386.55 203.01 1386.04 197.849L1385.97 197.055L1386.92 196.909C1388.67 195.029 1391.09 193.448 1390.66 189.081L1390.54 187.891C1391.49 187.744 1392.45 187.598 1392.33 186.407L1392.21 185.216C1393.44 184.624 1412.33 153.919 1411.7 154.017L1412.33 153.919C1415.11 152.687 1413.18 149.358 1416.98 148.773C1418.89 148.481 1418.29 152.199 1420.27 152.701L1421.22 152.555L1421.21 155.779ZM1475.53 275.977C1473.95 276.221 1472.68 276.416 1472.08 276.91C1471.21 277.85 1470.89 277.899 1471.01 279.09C1471.96 278.944 1472.39 280.086 1473.35 279.94L1475.25 279.647C1475.17 278.853 1475.17 278.853 1475.81 278.756C1476.12 278.707 1477.15 279.355 1477.79 279.257C1478.74 279.111 1478.98 278.268 1479.38 275.789C1477.76 275.636 1476.49 275.831 1475.53 275.977ZM1323.22 358.604C1323.11 357.413 1323.98 356.473 1323.86 355.282C1322.87 355.031 1319.82 353.485 1318.87 353.631C1318.95 354.425 1321.01 355.721 1321.32 358.896L1323.22 358.604ZM1313.26 365.373C1313.34 362.942 1314.18 361.605 1315.76 361.362C1316.08 361.313 1317.03 361.167 1318.06 361.814C1317.87 359.829 1318.39 358.541 1318.66 358.095C1316.25 356.452 1316.44 358.437 1313.39 356.89C1313.59 358.875 1311.95 361.946 1312.15 363.931C1312.27 365.122 1312.62 365.47 1313.26 365.373ZM1422.67 344.539C1423.23 343.647 1424.06 342.31 1424.22 340.674L1422.67 344.539ZM1419.96 349.79L1422.67 344.539C1421 347.213 1418.82 347.951 1419.01 349.936L1419.96 349.79ZM1306.06 377.358C1305.62 376.216 1305.59 375.819 1305.47 374.628C1305.04 370.262 1310.2 370.276 1311.35 365.665L1310.4 365.812C1308.81 366.055 1307.39 364.662 1306.44 364.809C1305.8 364.906 1305.52 365.352 1305.01 366.64C1305.64 366.543 1306.04 367.288 1306.04 367.288C1306.08 367.685 1305.12 367.831 1304.17 367.977L1303.22 368.123C1302.46 370.255 1302.26 371.494 1302.38 372.685C1302.5 373.876 1302.93 375.018 1303.05 376.209L1303.2 377.797L1306.06 377.358ZM1300.46 382.651C1300.34 381.46 1301.21 380.52 1301.1 379.329C1301.06 378.932 1300.42 379.029 1300.03 378.284C1300.11 379.078 1299.27 380.415 1299.39 381.606C1299.43 382.003 1299.74 381.954 1300.46 382.651ZM1405.85 370.09C1405.77 372.521 1405.25 373.809 1403.98 374.004C1403.34 374.102 1402.39 374.248 1401.96 373.106L1402.19 375.487L1401.48 374.791C1390.22 397.877 1376.17 402.452 1376.64 407.216C1373.82 408.052 1373.85 411.673 1370.04 412.258L1369.09 412.404C1368.49 416.123 1364.64 416.311 1364.36 419.981L1361.19 420.468C1358.65 420.858 1355.11 427.447 1351.97 431.555L1350.7 431.75C1350.58 430.559 1349.95 430.657 1349.95 430.657C1347.72 430.998 1346.21 435.26 1345.65 436.152C1346.33 436.451 1347.71 437.447 1348.46 438.54C1345.93 438.93 1343.15 440.163 1342.95 438.178C1342.91 437.781 1343.47 436.89 1343.75 436.444C1341.53 436.785 1342.12 439.515 1338.43 441.291L1337.47 441.437C1336.64 442.774 1335.68 446.145 1334.1 446.389C1333.78 446.438 1333.07 445.741 1332.71 445.393C1330.44 448.562 1329.57 449.502 1328.3 449.697L1322.59 450.574C1321.67 451.117 1320.8 452.057 1319.85 452.204C1319.21 452.301 1318.18 451.653 1317.87 451.702C1315.96 451.995 1314.45 453.032 1313.77 455.957C1313.42 455.609 1312.7 454.912 1312.39 454.961C1310.48 455.254 1303.94 457.468 1304.25 460.644C1302.66 460.888 1301.63 460.24 1300.56 459.195C1299.8 461.326 1299.84 461.723 1297.94 462.016C1294.85 460.072 1291 460.26 1285.1 459.153C1285.56 463.917 1286.63 468.186 1290.47 467.998L1291.43 467.851C1291.82 468.597 1292.46 468.499 1292.49 468.896C1292.61 470.087 1290.9 472.364 1291.02 473.555C1294.94 474.161 1295.26 477.337 1300.33 476.557L1301.29 476.411C1302.43 478.249 1305.01 478.256 1307.87 477.818C1311.04 477.33 1313.34 474.559 1315.25 474.266L1315.57 474.217C1318.31 472.588 1321.87 472.846 1321.41 468.082L1322.36 467.936C1323.58 470.568 1325.57 471.07 1327.83 471.126C1327.71 469.935 1329.46 468.054 1329.38 467.261C1329.38 467.261 1329.02 466.912 1328.39 467.01L1327.44 467.156C1327.24 465.171 1328.15 464.628 1330.06 464.336L1331.65 464.092C1331.13 465.38 1330.21 465.923 1330.41 467.908L1331.36 467.762C1333.27 467.47 1335.57 464.698 1335.49 463.904C1335.34 462.316 1334.27 461.271 1334.19 460.477C1334.15 460.081 1334.07 459.287 1335.02 459.14C1335.54 461.076 1337.48 461.181 1339.38 460.889C1342.24 460.45 1345.61 458.723 1345.46 457.135C1345.38 456.341 1344.63 455.248 1342.69 455.143L1343.64 454.997C1346.49 454.558 1347.28 456.049 1349.31 456.947C1350.39 448.318 1355.94 449.078 1363.89 441.41C1367.14 438.492 1373.78 430.623 1373.43 427.05L1374.38 426.904C1382.14 414.027 1395.13 398.734 1394.81 398.783C1397.87 397.104 1397.92 391.052 1399.79 387.139L1401.7 386.846C1401.98 383.176 1408.14 373.767 1412.2 369.115L1413.15 368.969C1413.39 368.126 1413.35 367.73 1413.27 366.936C1413.23 366.539 1412.8 365.396 1412.68 364.206C1412.6 363.412 1412.56 363.015 1413.44 362.075L1412.49 362.221C1410.06 363.802 1411.56 369.213 1408.71 369.652L1405.85 370.09ZM1292.42 395.973C1292.23 393.988 1293.18 393.842 1293.06 392.651C1292.11 392.798 1291.68 391.655 1291.04 391.753C1291.16 392.944 1290.29 393.884 1290.32 394.281C1291.28 394.135 1291.39 395.326 1292.42 395.973ZM1275.31 431.644C1274.56 430.55 1274.12 429.408 1274.08 429.011C1273.73 425.439 1279.45 424.561 1279.97 420.048L1279.41 420.94C1279.09 420.989 1278.06 420.341 1277.39 420.041L1278.03 419.944L1277.95 419.15C1277.44 413.989 1286.17 414.261 1285.7 409.498L1285.66 409.101C1284.19 410.535 1283.24 410.682 1282.92 410.73L1280.38 411.12C1279.11 411.315 1273.56 413.78 1274.26 420.926C1274.57 420.877 1274.57 420.877 1274.65 421.671C1274.65 421.671 1273.74 422.214 1272.79 422.36L1271.83 422.507C1271.08 424.638 1270.88 425.877 1270.99 427.068C1271.11 428.259 1271.54 429.401 1271.66 430.592L1271.82 432.18L1275.31 431.644ZM1280.99 450.113C1280.87 448.922 1280.2 448.623 1280.12 447.829C1280 446.638 1280.84 445.301 1280.72 444.11C1280.56 442.522 1279.42 440.684 1277.51 440.976C1277.2 441.025 1276.32 441.965 1275.49 443.302L1275.37 442.111C1275.14 439.729 1272.32 440.565 1271.45 438.281C1271.93 436.595 1273.87 436.7 1273.64 434.318L1273.48 432.73C1270.11 434.457 1266.37 439.06 1266.72 442.633C1267.62 451.763 1277.26 448.268 1279.2 451.597L1279.39 453.581C1279.55 455.169 1279.98 456.311 1280.94 456.165C1282.52 455.921 1284.47 452.802 1284.24 450.42L1284.16 449.626L1280.99 450.113ZM1345.26 435.406C1345.34 436.2 1345.65 436.152 1345.65 436.152L1345.26 435.406ZM1565.68 180.332C1552.02 192.101 1558.16 195.591 1549.12 198.592C1541.73 202.144 1534.02 212.193 1525.37 215.939C1521.56 216.524 1518.15 217.854 1516.16 220.577L1494.58 223.892C1489.7 223.432 1487.77 216.879 1487.27 211.718C1486.29 201.794 1488.57 192.176 1487.71 183.443C1487.48 181.061 1486.93 178.728 1486.69 176.346C1486.46 173.965 1489.51 175.511 1489.2 172.335C1489.16 171.938 1488.41 170.845 1488.33 170.051C1488.21 168.86 1488.85 168.762 1489.17 168.714C1492.97 168.129 1499.04 170.824 1503.87 170.887C1503.6 171.333 1503.6 171.333 1503.67 172.127C1503.79 173.317 1505.1 173.519 1507 173.227C1512.72 172.35 1509.39 168.025 1512.88 167.489C1514.23 168.088 1514.98 169.181 1516.89 168.889L1518.79 168.596C1522.92 167.963 1535.44 147.906 1535.44 147.906C1535.33 146.715 1534.65 146.415 1534.53 145.224L1535.49 145.078C1538.03 144.688 1538.9 143.748 1538.74 142.16C1538.67 141.366 1537.88 139.876 1537.76 138.685C1538.2 136.603 1539.43 136.011 1539.08 132.438C1539.71 132.341 1540.11 133.086 1540.74 132.988C1540.74 132.988 1541.06 132.94 1540.98 132.146C1539.99 131.895 1539.56 130.753 1538.81 129.659C1540.31 128.622 1540.59 128.176 1540.48 126.985C1540.05 122.619 1535.29 123.35 1535.05 120.968C1534.82 118.586 1537.68 118.147 1537.4 115.369C1536.78 109.017 1521.52 104.511 1519.3 104.852C1514.54 105.583 1509.97 108.299 1506.4 111.266L1506.51 112.457C1504.25 115.625 1501.27 118.098 1497.62 120.27L1496.67 120.417C1494.13 120.807 1490.59 124.17 1489.75 128.732L1489.51 132.799L1487.6 133.091C1486.65 133.238 1485.57 135.417 1485.61 135.814C1485.61 135.814 1485.69 136.608 1486.01 136.56C1485.41 140.278 1477.13 154.444 1477.1 154.047C1477.25 155.634 1479.27 156.533 1479.39 157.724C1479.31 160.154 1477.72 160.398 1477.6 162.432L1477.23 165.308C1476.04 166.297 1475.6 168.379 1474.41 169.368C1474.38 165.746 1476.84 161.338 1476.61 158.956C1476.53 158.162 1476.18 157.814 1475.15 157.167C1473.15 163.114 1471.41 164.994 1471.87 169.758C1471.99 170.949 1472.11 172.14 1472.9 173.63C1473.25 177.203 1468.92 179.076 1469.74 187.412C1470.09 190.985 1470.96 193.269 1471.91 193.123C1472.23 193.074 1472.79 192.183 1473.58 190.449C1472.95 190.546 1472.63 190.595 1472.51 189.404C1472.4 188.213 1474.62 187.872 1474.27 184.299C1474.03 181.918 1473.56 180.378 1472.85 179.682C1473.48 179.584 1473.88 180.33 1473.88 180.33C1477.37 179.794 1475.12 173.289 1477.97 172.85C1478.61 172.753 1478.73 173.944 1478.8 174.738C1479.15 178.31 1476.57 181.528 1476.81 183.909C1476.92 185.1 1477 185.894 1477.99 186.145L1478.11 187.336L1476.52 187.58C1477.11 193.534 1475.55 197.399 1472.5 199.077C1472.73 198.235 1473.33 197.74 1473.21 196.549C1473.14 195.756 1472.46 195.456 1471.11 194.857C1470.71 197.336 1468.61 198.868 1468.96 202.441C1473.09 201.807 1471.29 206.515 1477.01 205.638L1478.27 205.443L1478.35 209.461L1476.76 209.705C1476.52 210.548 1476.56 210.945 1476.72 212.533C1477.81 223.648 1492.23 232.715 1492.27 233.112C1493.22 232.966 1493.53 232.917 1493.42 231.727C1495.71 235.404 1504.86 240.042 1511.53 239.019C1513.12 238.775 1514.35 238.183 1515.18 236.846L1518.67 236.31C1522.72 234.882 1522.85 229.624 1527.61 228.893L1529.83 228.552C1530.27 226.47 1532.94 220.822 1534.48 220.181L1535.75 219.986C1542.42 218.962 1537.47 211.26 1542.55 210.48C1543.5 210.334 1543.66 211.922 1545.25 211.678C1547.47 211.337 1549.66 207.374 1549.42 204.992L1549.27 203.404C1551.77 199.393 1558.76 191.872 1560.67 191.579L1561.62 191.433C1564.24 188.613 1566.79 184.998 1568.34 181.133C1568.3 180.736 1567.59 180.04 1566.64 180.186L1565.68 180.332ZM1495.12 144.026C1495.36 143.183 1495 142.835 1494.37 142.932C1494.05 142.981 1493.73 143.03 1493.45 143.475C1495.32 139.561 1497.67 137.187 1499.97 134.415C1501.76 132.932 1502.52 130.801 1504.74 130.459L1506.64 130.167C1507.04 127.688 1509.34 128.14 1510.18 126.803C1509.94 124.422 1507.76 125.16 1507.53 122.778C1507.37 121.19 1509.16 119.707 1510.11 119.56C1510.43 119.512 1511.1 119.811 1511.18 120.605L1514.35 120.118C1515.23 119.178 1516.78 118.537 1518.04 118.342C1520.9 117.903 1523.08 120.39 1525.22 122.479L1524.81 128.183C1523.69 133.19 1524.78 144.305 1501.36 155.155C1499.22 156.29 1491.53 156.666 1492.04 155.377L1495.12 144.026ZM1497.26 142.89C1497.26 142.89 1497.9 142.793 1498.81 142.25C1499.41 138.531 1501.63 138.19 1502.31 135.265C1502.23 134.471 1501.92 134.519 1501.28 134.617C1499.38 134.909 1496.67 140.16 1496.9 142.542C1496.94 142.939 1496.94 142.939 1497.26 142.89ZM1592.76 229.765C1594.71 229.87 1596.57 229.18 1598.48 228.888C1600.02 228.247 1601.93 227.955 1603.48 227.314C1605.98 226.527 1608.16 222.565 1610.94 224.557C1611.58 221.235 1612.76 223.47 1613.67 222.927C1615.22 222.286 1616.41 221.297 1617.92 220.26C1619.43 219.222 1620.94 218.185 1622.41 216.75C1625.39 214.278 1627.97 211.06 1629.88 207.543C1626.47 185.905 1604.68 173.94 1590.29 168.494C1589.42 166.209 1590.14 166.906 1589.07 165.861C1588.68 161.891 1589.24 157.776 1590.16 154.008C1590.88 151.48 1591.91 148.903 1592.95 146.326C1593.47 145.038 1595.73 141.869 1597.96 138.304L1599.2 131.263L1601.9 132.461C1603.25 129.835 1604.68 128.004 1605.24 127.112C1606.63 124.884 1603.69 124.529 1605.09 122.3C1607.03 122.405 1608.81 124.146 1610.52 121.868C1612.31 120.385 1613.5 116.172 1614.97 114.737C1617.08 113.205 1617.15 117.223 1618.66 116.186C1626.64 112.14 1632.75 112.008 1639.52 115.399C1639.88 112.523 1639.6 112.969 1640.4 111.235C1639.14 104.981 1621.72 91.5393 1616.2 91.177C1614.5 90.2298 1612.32 90.968 1609.9 92.5488C1608.39 93.5865 1606.32 95.5155 1604.61 97.7928C1597.34 105.76 1590.18 118.142 1585.66 121.255L1586.12 126.018L1581.68 126.701C1582.43 127.794 1583.14 128.491 1584.21 129.535C1579.6 138.303 1569.58 151.124 1578.09 162.309C1578.83 166.627 1580.85 170.75 1584.1 174.281C1585.2 175.722 1586.95 177.067 1588.37 178.459L1592.17 181.099C1598.05 178.585 1599.66 185.187 1602.4 186.782C1605.09 187.98 1601.73 180.034 1607.79 189.178C1610.48 190.376 1613.49 191.525 1615.83 192.375C1616.18 195.948 1616.41 198.329 1615.34 200.509C1611.68 209.131 1601.2 210.739 1594.42 210.572C1589.98 211.254 1583.39 213.072 1580.62 211.08C1571.18 210.112 1577.7 201.051 1578.93 200.459C1580.48 199.819 1579.33 201.205 1578.9 196.838C1576.8 198.37 1576.16 198.467 1574.73 200.299C1571.68 198.753 1573.69 206.1 1572.31 201.88C1569.57 203.509 1572.15 203.516 1569.37 204.749C1564.79 213.914 1565.09 223.539 1567.74 227.564C1571.39 228.616 1575.04 229.667 1578.61 229.925C1580.9 230.378 1582.85 230.482 1585.11 230.538C1583.88 227.906 1586.42 227.516 1592.76 229.765ZM1667.53 131.648C1668.09 130.756 1668.64 129.865 1668.88 129.022C1668.84 128.625 1668.33 129.914 1667.53 131.648ZM1616.79 166.036C1630.45 157.491 1650.65 146.732 1661.65 137.386C1654.47 139.698 1652.44 142.024 1647.6 145.186C1643.04 144.677 1623.86 156.084 1616.79 166.036ZM1615.76 162.164C1616.04 161.718 1614.57 163.153 1613.62 163.299C1613.3 163.348 1614.37 164.392 1614.65 163.947L1615.76 162.164ZM1605.91 173.348C1607.97 171.419 1610.99 169.344 1614.64 167.171C1612.23 165.527 1608.78 166.461 1606.47 169.232C1606.39 171.663 1606.31 170.869 1605.79 172.157L1605.91 173.348ZM1608.92 174.497C1609.19 177.276 1612.22 171.976 1614.17 168.856C1612.74 170.688 1610.67 172.617 1608.29 174.595L1608.92 174.497ZM1579.89 197.089C1581.4 199.275 1584.93 195.912 1586.28 193.286C1585.61 192.987 1584.7 193.53 1583.15 194.171C1582.27 195.111 1581.08 196.1 1579.89 197.089ZM1591.09 209.471C1590.26 207.584 1586.46 208.169 1585.7 207.076C1585.78 207.87 1588.16 209.116 1588.24 209.91L1591.09 209.471Z" fill="url(#paint0_linear_3074_381)"/>
<defs>
<linearGradient id="paint0_linear_3074_381" x1="-1665.74" y1="-196.677" x2="-1510.39" y2="1119.71" gradientUnits="userSpaceOnUse">
<stop offset="1" stop-color="#C6DDFF"/>
<stop offset="0.358685" stop-color="#D2EED9"/>
</linearGradient>
</defs>
</svg>
