<svg width="144" height="144" viewBox="0 0 144 144" fill="none" xmlns="http://www.w3.org/2000/svg">
<rect width="144" height="144" fill="#19BBF0"/>
<path d="M72.1869 71.9107C72.1869 82.1544 63.852 90.4988 53.5988 90.4988C43.3456 90.4988 35.0106 82.1639 35.0106 71.9107C35.0106 61.6574 43.3456 53.3225 53.5988 53.3225V30.3024C30.6637 30.3024 12 48.9661 12 71.9012C12 94.8363 30.6637 113.5 53.5988 113.5C76.5339 113.5 95.1976 94.8363 95.1976 71.9012H72.1869V71.9107Z" fill="white"/>
<path d="M92.107 30.0094C69.172 29.5842 50.168 47.9077 49.7522 70.8428L72.7629 71.2681C72.9519 61.1377 81.249 53.0201 91.3416 53.0201C91.455 53.0201 91.5684 53.0201 91.6912 53.0201C101.935 53.2092 110.119 61.6952 109.93 71.939C109.741 82.1828 101.255 90.3759 91.0108 90.1775L90.5855 113.188C90.8407 113.188 91.1053 113.188 91.3604 113.188C113.946 113.188 132.525 95.0253 132.94 72.3548C133.366 49.4197 115.042 30.4158 92.107 30L92.107 30.0094Z" fill="white"/>
</svg>
